<mxfile host="app.diagrams.net" modified="2024-04-06T11:18:23.862Z" agent="Mozilla/5.0 (Windows NT 10.0; Win64; x64) AppleWebKit/537.36 (KHTML, like Gecko) Chrome/123.0.0.0 Safari/537.36" etag="b0B5cESJjF95xw3H2gCI" version="24.2.2" type="github">
  <diagram name="第 1 页" id="ZvuYgRS8OIRiF2QTl3wt">
    <mxGraphModel dx="2030" dy="1657" grid="0" gridSize="10" guides="0" tooltips="1" connect="1" arrows="1" fold="1" page="0" pageScale="1" pageWidth="827" pageHeight="1169" math="0" shadow="0">
      <root>
        <mxCell id="0" />
        <mxCell id="1" parent="0" />
        <mxCell id="3Hj_yJd5IUHqJ45RKS4R-333" value="" style="rounded=0;whiteSpace=wrap;html=1;dashed=1;" vertex="1" parent="1">
          <mxGeometry x="-714" y="684" width="590" height="334" as="geometry" />
        </mxCell>
        <mxCell id="3Hj_yJd5IUHqJ45RKS4R-262" value="" style="rounded=0;whiteSpace=wrap;html=1;" vertex="1" parent="1">
          <mxGeometry x="76" y="164" width="608" height="326" as="geometry" />
        </mxCell>
        <mxCell id="3Hj_yJd5IUHqJ45RKS4R-1" value="&lt;font style=&quot;font-size: 24px;&quot; face=&quot;Comic Sans MS&quot;&gt;Skip List&lt;/font&gt;" style="text;html=1;align=center;verticalAlign=middle;resizable=0;points=[];autosize=1;strokeColor=none;fillColor=none;" vertex="1" parent="1">
          <mxGeometry x="-764" y="-1122" width="117" height="41" as="geometry" />
        </mxCell>
        <mxCell id="3Hj_yJd5IUHqJ45RKS4R-2" value="&lt;font face=&quot;Comic Sans MS&quot; style=&quot;font-size: 24px;&quot;&gt;1&lt;/font&gt;" style="rounded=1;whiteSpace=wrap;html=1;fillColor=#d5e8d4;strokeColor=#82b366;strokeWidth=3;shadow=0;" vertex="1" parent="1">
          <mxGeometry x="-707" y="-1037" width="44" height="31" as="geometry" />
        </mxCell>
        <mxCell id="3Hj_yJd5IUHqJ45RKS4R-4" value="" style="rounded=1;whiteSpace=wrap;html=1;fillColor=#fff2cc;strokeColor=#d6b656;strokeWidth=3;shadow=0;" vertex="1" parent="1">
          <mxGeometry x="-660" y="-1037" width="23" height="31" as="geometry" />
        </mxCell>
        <mxCell id="3Hj_yJd5IUHqJ45RKS4R-5" value="&lt;font face=&quot;Comic Sans MS&quot; style=&quot;font-size: 24px;&quot;&gt;2&lt;/font&gt;" style="rounded=1;whiteSpace=wrap;html=1;fillColor=#d5e8d4;strokeColor=#82b366;strokeWidth=3;shadow=0;" vertex="1" parent="1">
          <mxGeometry x="-613" y="-1036" width="44" height="31" as="geometry" />
        </mxCell>
        <mxCell id="3Hj_yJd5IUHqJ45RKS4R-6" value="" style="rounded=1;whiteSpace=wrap;html=1;fillColor=#fff2cc;strokeColor=#d6b656;strokeWidth=3;shadow=0;" vertex="1" parent="1">
          <mxGeometry x="-566" y="-1036" width="23" height="31" as="geometry" />
        </mxCell>
        <mxCell id="3Hj_yJd5IUHqJ45RKS4R-7" value="&lt;font face=&quot;Comic Sans MS&quot; style=&quot;font-size: 24px;&quot;&gt;4&lt;/font&gt;" style="rounded=1;whiteSpace=wrap;html=1;fillColor=#d5e8d4;strokeColor=#82b366;strokeWidth=3;shadow=0;" vertex="1" parent="1">
          <mxGeometry x="-519" y="-1035" width="44" height="31" as="geometry" />
        </mxCell>
        <mxCell id="3Hj_yJd5IUHqJ45RKS4R-8" value="" style="rounded=1;whiteSpace=wrap;html=1;fillColor=#fff2cc;strokeColor=#d6b656;strokeWidth=3;shadow=0;" vertex="1" parent="1">
          <mxGeometry x="-472" y="-1035" width="23" height="31" as="geometry" />
        </mxCell>
        <mxCell id="3Hj_yJd5IUHqJ45RKS4R-9" value="&lt;font face=&quot;Comic Sans MS&quot; style=&quot;font-size: 24px;&quot;&gt;7&lt;/font&gt;" style="rounded=1;whiteSpace=wrap;html=1;fillColor=#d5e8d4;strokeColor=#82b366;strokeWidth=3;shadow=0;" vertex="1" parent="1">
          <mxGeometry x="-425" y="-1034" width="44" height="31" as="geometry" />
        </mxCell>
        <mxCell id="3Hj_yJd5IUHqJ45RKS4R-10" value="" style="rounded=1;whiteSpace=wrap;html=1;fillColor=#fff2cc;strokeColor=#d6b656;strokeWidth=3;shadow=0;" vertex="1" parent="1">
          <mxGeometry x="-378" y="-1034" width="23" height="31" as="geometry" />
        </mxCell>
        <mxCell id="3Hj_yJd5IUHqJ45RKS4R-15" value="&lt;font face=&quot;Comic Sans MS&quot; style=&quot;font-size: 24px;&quot;&gt;15&lt;/font&gt;" style="rounded=1;whiteSpace=wrap;html=1;fillColor=#d5e8d4;strokeColor=#82b366;strokeWidth=3;shadow=0;" vertex="1" parent="1">
          <mxGeometry x="-329" y="-1033" width="44" height="31" as="geometry" />
        </mxCell>
        <mxCell id="3Hj_yJd5IUHqJ45RKS4R-16" value="" style="rounded=1;whiteSpace=wrap;html=1;fillColor=#fff2cc;strokeColor=#d6b656;strokeWidth=3;shadow=0;" vertex="1" parent="1">
          <mxGeometry x="-282" y="-1033" width="23" height="31" as="geometry" />
        </mxCell>
        <mxCell id="3Hj_yJd5IUHqJ45RKS4R-17" value="&lt;font face=&quot;Comic Sans MS&quot; style=&quot;font-size: 24px;&quot;&gt;24&lt;/font&gt;" style="rounded=1;whiteSpace=wrap;html=1;fillColor=#d5e8d4;strokeColor=#82b366;strokeWidth=3;shadow=0;" vertex="1" parent="1">
          <mxGeometry x="-235" y="-1032" width="44" height="31" as="geometry" />
        </mxCell>
        <mxCell id="3Hj_yJd5IUHqJ45RKS4R-18" value="" style="rounded=1;whiteSpace=wrap;html=1;fillColor=#fff2cc;strokeColor=#d6b656;strokeWidth=3;shadow=0;" vertex="1" parent="1">
          <mxGeometry x="-188" y="-1032" width="23" height="31" as="geometry" />
        </mxCell>
        <mxCell id="3Hj_yJd5IUHqJ45RKS4R-19" value="&lt;font face=&quot;Comic Sans MS&quot;&gt;&lt;span style=&quot;font-size: 24px;&quot;&gt;30&lt;/span&gt;&lt;/font&gt;" style="rounded=1;whiteSpace=wrap;html=1;fillColor=#d5e8d4;strokeColor=#82b366;strokeWidth=3;shadow=0;" vertex="1" parent="1">
          <mxGeometry x="-141" y="-1031" width="44" height="31" as="geometry" />
        </mxCell>
        <mxCell id="3Hj_yJd5IUHqJ45RKS4R-20" value="" style="rounded=1;whiteSpace=wrap;html=1;fillColor=#fff2cc;strokeColor=#d6b656;strokeWidth=3;shadow=0;" vertex="1" parent="1">
          <mxGeometry x="-94" y="-1031" width="23" height="31" as="geometry" />
        </mxCell>
        <mxCell id="3Hj_yJd5IUHqJ45RKS4R-21" value="&lt;font face=&quot;Comic Sans MS&quot; style=&quot;font-size: 24px;&quot;&gt;34&lt;/font&gt;" style="rounded=1;whiteSpace=wrap;html=1;fillColor=#d5e8d4;strokeColor=#82b366;strokeWidth=3;shadow=0;" vertex="1" parent="1">
          <mxGeometry x="-47" y="-1030" width="44" height="31" as="geometry" />
        </mxCell>
        <mxCell id="3Hj_yJd5IUHqJ45RKS4R-22" value="&lt;font face=&quot;Comic Sans MS&quot; style=&quot;font-size: 20px;&quot;&gt;^&lt;/font&gt;" style="rounded=1;whiteSpace=wrap;html=1;fillColor=#fff2cc;strokeColor=#d6b656;strokeWidth=3;shadow=0;" vertex="1" parent="1">
          <mxGeometry y="-1030" width="23" height="31" as="geometry" />
        </mxCell>
        <mxCell id="3Hj_yJd5IUHqJ45RKS4R-23" value="" style="endArrow=classic;html=1;rounded=0;entryX=0;entryY=0.5;entryDx=0;entryDy=0;curved=1;strokeWidth=2;" edge="1" parent="1">
          <mxGeometry width="50" height="50" relative="1" as="geometry">
            <mxPoint x="-645" y="-1018" as="sourcePoint" />
            <mxPoint x="-616" y="-1018" as="targetPoint" />
          </mxGeometry>
        </mxCell>
        <mxCell id="3Hj_yJd5IUHqJ45RKS4R-24" value="" style="endArrow=classic;html=1;rounded=0;entryX=0;entryY=0.5;entryDx=0;entryDy=0;strokeWidth=2;" edge="1" parent="1">
          <mxGeometry width="50" height="50" relative="1" as="geometry">
            <mxPoint x="-552" y="-1018" as="sourcePoint" />
            <mxPoint x="-523" y="-1018" as="targetPoint" />
          </mxGeometry>
        </mxCell>
        <mxCell id="3Hj_yJd5IUHqJ45RKS4R-26" value="" style="endArrow=classic;html=1;rounded=0;entryX=0;entryY=0.5;entryDx=0;entryDy=0;strokeWidth=2;" edge="1" parent="1">
          <mxGeometry width="50" height="50" relative="1" as="geometry">
            <mxPoint x="-457" y="-1017" as="sourcePoint" />
            <mxPoint x="-428" y="-1017" as="targetPoint" />
          </mxGeometry>
        </mxCell>
        <mxCell id="3Hj_yJd5IUHqJ45RKS4R-27" value="" style="endArrow=classic;html=1;rounded=0;entryX=0;entryY=0.5;entryDx=0;entryDy=0;strokeWidth=2;" edge="1" parent="1">
          <mxGeometry width="50" height="50" relative="1" as="geometry">
            <mxPoint x="-361" y="-1017" as="sourcePoint" />
            <mxPoint x="-332" y="-1017" as="targetPoint" />
          </mxGeometry>
        </mxCell>
        <mxCell id="3Hj_yJd5IUHqJ45RKS4R-28" value="" style="endArrow=classic;html=1;rounded=0;entryX=0;entryY=0.5;entryDx=0;entryDy=0;strokeWidth=2;" edge="1" parent="1">
          <mxGeometry width="50" height="50" relative="1" as="geometry">
            <mxPoint x="-268" y="-1015" as="sourcePoint" />
            <mxPoint x="-239" y="-1015" as="targetPoint" />
          </mxGeometry>
        </mxCell>
        <mxCell id="3Hj_yJd5IUHqJ45RKS4R-29" value="" style="endArrow=classic;html=1;rounded=0;entryX=0;entryY=0.5;entryDx=0;entryDy=0;strokeWidth=2;" edge="1" parent="1">
          <mxGeometry width="50" height="50" relative="1" as="geometry">
            <mxPoint x="-172" y="-1014" as="sourcePoint" />
            <mxPoint x="-143" y="-1014" as="targetPoint" />
          </mxGeometry>
        </mxCell>
        <mxCell id="3Hj_yJd5IUHqJ45RKS4R-30" value="" style="endArrow=classic;html=1;rounded=0;entryX=0;entryY=0.5;entryDx=0;entryDy=0;strokeWidth=2;" edge="1" parent="1">
          <mxGeometry width="50" height="50" relative="1" as="geometry">
            <mxPoint x="-79" y="-1015" as="sourcePoint" />
            <mxPoint x="-50" y="-1015" as="targetPoint" />
          </mxGeometry>
        </mxCell>
        <mxCell id="3Hj_yJd5IUHqJ45RKS4R-31" value="&lt;font face=&quot;Comic Sans MS&quot; style=&quot;font-size: 24px;&quot;&gt;1&lt;/font&gt;" style="rounded=1;whiteSpace=wrap;html=1;fillColor=#d5e8d4;strokeColor=#82b366;strokeWidth=3;shadow=0;" vertex="1" parent="1">
          <mxGeometry x="-704" y="-756" width="44" height="31" as="geometry" />
        </mxCell>
        <mxCell id="3Hj_yJd5IUHqJ45RKS4R-32" value="" style="rounded=1;whiteSpace=wrap;html=1;fillColor=#fff2cc;strokeColor=#d6b656;strokeWidth=3;shadow=0;" vertex="1" parent="1">
          <mxGeometry x="-657" y="-756" width="23" height="31" as="geometry" />
        </mxCell>
        <mxCell id="3Hj_yJd5IUHqJ45RKS4R-33" value="&lt;font face=&quot;Comic Sans MS&quot; style=&quot;font-size: 24px;&quot;&gt;2&lt;/font&gt;" style="rounded=1;whiteSpace=wrap;html=1;fillColor=#d5e8d4;strokeColor=#82b366;strokeWidth=3;shadow=0;" vertex="1" parent="1">
          <mxGeometry x="-610" y="-755" width="44" height="31" as="geometry" />
        </mxCell>
        <mxCell id="3Hj_yJd5IUHqJ45RKS4R-34" value="" style="rounded=1;whiteSpace=wrap;html=1;fillColor=#fff2cc;strokeColor=#d6b656;strokeWidth=3;shadow=0;" vertex="1" parent="1">
          <mxGeometry x="-563" y="-755" width="23" height="31" as="geometry" />
        </mxCell>
        <mxCell id="3Hj_yJd5IUHqJ45RKS4R-35" value="&lt;font face=&quot;Comic Sans MS&quot; style=&quot;font-size: 24px;&quot;&gt;4&lt;/font&gt;" style="rounded=1;whiteSpace=wrap;html=1;fillColor=#d5e8d4;strokeColor=#82b366;strokeWidth=3;shadow=0;" vertex="1" parent="1">
          <mxGeometry x="-516" y="-754" width="44" height="31" as="geometry" />
        </mxCell>
        <mxCell id="3Hj_yJd5IUHqJ45RKS4R-36" value="" style="rounded=1;whiteSpace=wrap;html=1;fillColor=#fff2cc;strokeColor=#d6b656;strokeWidth=3;shadow=0;" vertex="1" parent="1">
          <mxGeometry x="-469" y="-754" width="23" height="31" as="geometry" />
        </mxCell>
        <mxCell id="3Hj_yJd5IUHqJ45RKS4R-37" value="&lt;font face=&quot;Comic Sans MS&quot; style=&quot;font-size: 24px;&quot;&gt;7&lt;/font&gt;" style="rounded=1;whiteSpace=wrap;html=1;fillColor=#d5e8d4;strokeColor=#82b366;strokeWidth=3;shadow=0;" vertex="1" parent="1">
          <mxGeometry x="-422" y="-753" width="44" height="31" as="geometry" />
        </mxCell>
        <mxCell id="3Hj_yJd5IUHqJ45RKS4R-38" value="" style="rounded=1;whiteSpace=wrap;html=1;fillColor=#fff2cc;strokeColor=#d6b656;strokeWidth=3;shadow=0;" vertex="1" parent="1">
          <mxGeometry x="-375" y="-753" width="23" height="31" as="geometry" />
        </mxCell>
        <mxCell id="3Hj_yJd5IUHqJ45RKS4R-39" value="&lt;font face=&quot;Comic Sans MS&quot; style=&quot;font-size: 24px;&quot;&gt;15&lt;/font&gt;" style="rounded=1;whiteSpace=wrap;html=1;fillColor=#d5e8d4;strokeColor=#82b366;strokeWidth=3;shadow=0;" vertex="1" parent="1">
          <mxGeometry x="-326" y="-752" width="44" height="31" as="geometry" />
        </mxCell>
        <mxCell id="3Hj_yJd5IUHqJ45RKS4R-40" value="" style="rounded=1;whiteSpace=wrap;html=1;fillColor=#fff2cc;strokeColor=#d6b656;strokeWidth=3;shadow=0;" vertex="1" parent="1">
          <mxGeometry x="-279" y="-752" width="23" height="31" as="geometry" />
        </mxCell>
        <mxCell id="3Hj_yJd5IUHqJ45RKS4R-41" value="&lt;font face=&quot;Comic Sans MS&quot; style=&quot;font-size: 24px;&quot;&gt;24&lt;/font&gt;" style="rounded=1;whiteSpace=wrap;html=1;fillColor=#d5e8d4;strokeColor=#82b366;strokeWidth=3;shadow=0;" vertex="1" parent="1">
          <mxGeometry x="-232" y="-751" width="44" height="31" as="geometry" />
        </mxCell>
        <mxCell id="3Hj_yJd5IUHqJ45RKS4R-42" value="" style="rounded=1;whiteSpace=wrap;html=1;fillColor=#fff2cc;strokeColor=#d6b656;strokeWidth=3;shadow=0;" vertex="1" parent="1">
          <mxGeometry x="-185" y="-751" width="23" height="31" as="geometry" />
        </mxCell>
        <mxCell id="3Hj_yJd5IUHqJ45RKS4R-43" value="&lt;font face=&quot;Comic Sans MS&quot;&gt;&lt;span style=&quot;font-size: 24px;&quot;&gt;30&lt;/span&gt;&lt;/font&gt;" style="rounded=1;whiteSpace=wrap;html=1;fillColor=#d5e8d4;strokeColor=#82b366;strokeWidth=3;shadow=0;" vertex="1" parent="1">
          <mxGeometry x="-138" y="-750" width="44" height="31" as="geometry" />
        </mxCell>
        <mxCell id="3Hj_yJd5IUHqJ45RKS4R-44" value="" style="rounded=1;whiteSpace=wrap;html=1;fillColor=#fff2cc;strokeColor=#d6b656;strokeWidth=3;shadow=0;" vertex="1" parent="1">
          <mxGeometry x="-91" y="-750" width="23" height="31" as="geometry" />
        </mxCell>
        <mxCell id="3Hj_yJd5IUHqJ45RKS4R-45" value="&lt;font face=&quot;Comic Sans MS&quot; style=&quot;font-size: 24px;&quot;&gt;34&lt;/font&gt;" style="rounded=1;whiteSpace=wrap;html=1;fillColor=#d5e8d4;strokeColor=#82b366;strokeWidth=3;shadow=0;" vertex="1" parent="1">
          <mxGeometry x="-44" y="-749" width="44" height="31" as="geometry" />
        </mxCell>
        <mxCell id="3Hj_yJd5IUHqJ45RKS4R-46" value="&lt;font face=&quot;Comic Sans MS&quot; style=&quot;font-size: 20px;&quot;&gt;^&lt;/font&gt;" style="rounded=1;whiteSpace=wrap;html=1;fillColor=#fff2cc;strokeColor=#d6b656;strokeWidth=3;shadow=0;" vertex="1" parent="1">
          <mxGeometry x="3" y="-749" width="23" height="31" as="geometry" />
        </mxCell>
        <mxCell id="3Hj_yJd5IUHqJ45RKS4R-47" value="" style="endArrow=classic;html=1;rounded=0;entryX=0;entryY=0.5;entryDx=0;entryDy=0;curved=1;strokeWidth=2;" edge="1" parent="1">
          <mxGeometry width="50" height="50" relative="1" as="geometry">
            <mxPoint x="-642" y="-737" as="sourcePoint" />
            <mxPoint x="-613" y="-737" as="targetPoint" />
          </mxGeometry>
        </mxCell>
        <mxCell id="3Hj_yJd5IUHqJ45RKS4R-48" value="" style="endArrow=classic;html=1;rounded=0;entryX=0;entryY=0.5;entryDx=0;entryDy=0;strokeWidth=2;" edge="1" parent="1">
          <mxGeometry width="50" height="50" relative="1" as="geometry">
            <mxPoint x="-549" y="-737" as="sourcePoint" />
            <mxPoint x="-520" y="-737" as="targetPoint" />
          </mxGeometry>
        </mxCell>
        <mxCell id="3Hj_yJd5IUHqJ45RKS4R-49" value="" style="endArrow=classic;html=1;rounded=0;entryX=0;entryY=0.5;entryDx=0;entryDy=0;strokeWidth=2;fillColor=#f8cecc;strokeColor=#b85450;" edge="1" parent="1">
          <mxGeometry width="50" height="50" relative="1" as="geometry">
            <mxPoint x="-454" y="-736" as="sourcePoint" />
            <mxPoint x="-425" y="-736" as="targetPoint" />
          </mxGeometry>
        </mxCell>
        <mxCell id="3Hj_yJd5IUHqJ45RKS4R-50" value="" style="endArrow=classic;html=1;rounded=0;entryX=0;entryY=0.5;entryDx=0;entryDy=0;strokeWidth=2;" edge="1" parent="1">
          <mxGeometry width="50" height="50" relative="1" as="geometry">
            <mxPoint x="-358" y="-736" as="sourcePoint" />
            <mxPoint x="-329" y="-736" as="targetPoint" />
          </mxGeometry>
        </mxCell>
        <mxCell id="3Hj_yJd5IUHqJ45RKS4R-51" value="" style="endArrow=classic;html=1;rounded=0;entryX=0;entryY=0.5;entryDx=0;entryDy=0;strokeWidth=2;" edge="1" parent="1">
          <mxGeometry width="50" height="50" relative="1" as="geometry">
            <mxPoint x="-265" y="-734" as="sourcePoint" />
            <mxPoint x="-236" y="-734" as="targetPoint" />
          </mxGeometry>
        </mxCell>
        <mxCell id="3Hj_yJd5IUHqJ45RKS4R-52" value="" style="endArrow=classic;html=1;rounded=0;entryX=0;entryY=0.5;entryDx=0;entryDy=0;strokeWidth=2;" edge="1" parent="1">
          <mxGeometry width="50" height="50" relative="1" as="geometry">
            <mxPoint x="-169" y="-733" as="sourcePoint" />
            <mxPoint x="-140" y="-733" as="targetPoint" />
          </mxGeometry>
        </mxCell>
        <mxCell id="3Hj_yJd5IUHqJ45RKS4R-53" value="" style="endArrow=classic;html=1;rounded=0;entryX=0;entryY=0.5;entryDx=0;entryDy=0;strokeWidth=2;" edge="1" parent="1">
          <mxGeometry width="50" height="50" relative="1" as="geometry">
            <mxPoint x="-76" y="-734" as="sourcePoint" />
            <mxPoint x="-47" y="-734" as="targetPoint" />
          </mxGeometry>
        </mxCell>
        <mxCell id="3Hj_yJd5IUHqJ45RKS4R-54" value="&lt;font face=&quot;Comic Sans MS&quot; style=&quot;font-size: 24px;&quot;&gt;1&lt;/font&gt;" style="rounded=1;whiteSpace=wrap;html=1;fillColor=#d5e8d4;strokeColor=#82b366;strokeWidth=3;shadow=0;" vertex="1" parent="1">
          <mxGeometry x="-703" y="-837" width="44" height="31" as="geometry" />
        </mxCell>
        <mxCell id="3Hj_yJd5IUHqJ45RKS4R-55" value="" style="rounded=1;whiteSpace=wrap;html=1;fillColor=#fff2cc;strokeColor=#d6b656;strokeWidth=3;shadow=0;" vertex="1" parent="1">
          <mxGeometry x="-656" y="-837" width="23" height="31" as="geometry" />
        </mxCell>
        <mxCell id="3Hj_yJd5IUHqJ45RKS4R-56" value="&lt;font face=&quot;Comic Sans MS&quot; style=&quot;font-size: 24px;&quot;&gt;4&lt;/font&gt;" style="rounded=1;whiteSpace=wrap;html=1;fillColor=#d5e8d4;strokeColor=#82b366;strokeWidth=3;shadow=0;" vertex="1" parent="1">
          <mxGeometry x="-518" y="-835" width="44" height="31" as="geometry" />
        </mxCell>
        <mxCell id="3Hj_yJd5IUHqJ45RKS4R-57" value="" style="rounded=1;whiteSpace=wrap;html=1;fillColor=#fff2cc;strokeColor=#d6b656;strokeWidth=3;shadow=0;" vertex="1" parent="1">
          <mxGeometry x="-471" y="-835" width="23" height="31" as="geometry" />
        </mxCell>
        <mxCell id="3Hj_yJd5IUHqJ45RKS4R-58" value="&lt;font face=&quot;Comic Sans MS&quot; style=&quot;font-size: 24px;&quot;&gt;15&lt;/font&gt;" style="rounded=1;whiteSpace=wrap;html=1;fillColor=#d5e8d4;strokeColor=#82b366;strokeWidth=3;shadow=0;" vertex="1" parent="1">
          <mxGeometry x="-331" y="-837" width="44" height="31" as="geometry" />
        </mxCell>
        <mxCell id="3Hj_yJd5IUHqJ45RKS4R-59" value="" style="rounded=1;whiteSpace=wrap;html=1;fillColor=#fff2cc;strokeColor=#d6b656;strokeWidth=3;shadow=0;" vertex="1" parent="1">
          <mxGeometry x="-284" y="-837" width="23" height="31" as="geometry" />
        </mxCell>
        <mxCell id="3Hj_yJd5IUHqJ45RKS4R-60" value="&lt;font face=&quot;Comic Sans MS&quot;&gt;&lt;span style=&quot;font-size: 24px;&quot;&gt;30&lt;/span&gt;&lt;/font&gt;" style="rounded=1;whiteSpace=wrap;html=1;fillColor=#d5e8d4;strokeColor=#82b366;strokeWidth=3;shadow=0;" vertex="1" parent="1">
          <mxGeometry x="-140" y="-836" width="44" height="31" as="geometry" />
        </mxCell>
        <mxCell id="3Hj_yJd5IUHqJ45RKS4R-61" value="" style="rounded=1;whiteSpace=wrap;html=1;fillColor=#fff2cc;strokeColor=#d6b656;strokeWidth=3;shadow=0;" vertex="1" parent="1">
          <mxGeometry x="-93" y="-836" width="23" height="31" as="geometry" />
        </mxCell>
        <mxCell id="3Hj_yJd5IUHqJ45RKS4R-63" value="" style="endArrow=classic;html=1;rounded=0;curved=1;strokeWidth=2;fillColor=#f8cecc;strokeColor=#b85450;" edge="1" parent="1">
          <mxGeometry width="50" height="50" relative="1" as="geometry">
            <mxPoint x="-643" y="-820" as="sourcePoint" />
            <mxPoint x="-522" y="-820" as="targetPoint" />
          </mxGeometry>
        </mxCell>
        <mxCell id="3Hj_yJd5IUHqJ45RKS4R-64" value="" style="endArrow=classic;html=1;rounded=0;curved=1;strokeWidth=2;" edge="1" parent="1">
          <mxGeometry width="50" height="50" relative="1" as="geometry">
            <mxPoint x="-457" y="-819" as="sourcePoint" />
            <mxPoint x="-336" y="-819" as="targetPoint" />
          </mxGeometry>
        </mxCell>
        <mxCell id="3Hj_yJd5IUHqJ45RKS4R-65" value="" style="endArrow=classic;html=1;rounded=0;curved=1;strokeWidth=2;" edge="1" parent="1">
          <mxGeometry width="50" height="50" relative="1" as="geometry">
            <mxPoint x="-268" y="-820" as="sourcePoint" />
            <mxPoint x="-147" y="-820" as="targetPoint" />
          </mxGeometry>
        </mxCell>
        <mxCell id="3Hj_yJd5IUHqJ45RKS4R-66" value="" style="endArrow=classic;html=1;rounded=0;curved=1;strokeWidth=2;" edge="1" parent="1">
          <mxGeometry width="50" height="50" relative="1" as="geometry">
            <mxPoint x="-645" y="-809" as="sourcePoint" />
            <mxPoint x="-645" y="-762" as="targetPoint" />
          </mxGeometry>
        </mxCell>
        <mxCell id="3Hj_yJd5IUHqJ45RKS4R-67" value="" style="endArrow=classic;html=1;rounded=0;curved=1;strokeWidth=2;fillColor=#f8cecc;strokeColor=#b85450;" edge="1" parent="1">
          <mxGeometry width="50" height="50" relative="1" as="geometry">
            <mxPoint x="-459" y="-807" as="sourcePoint" />
            <mxPoint x="-459" y="-760" as="targetPoint" />
          </mxGeometry>
        </mxCell>
        <mxCell id="3Hj_yJd5IUHqJ45RKS4R-68" value="" style="endArrow=classic;html=1;rounded=0;curved=1;strokeWidth=2;" edge="1" parent="1">
          <mxGeometry width="50" height="50" relative="1" as="geometry">
            <mxPoint x="-271" y="-808" as="sourcePoint" />
            <mxPoint x="-271" y="-761" as="targetPoint" />
          </mxGeometry>
        </mxCell>
        <mxCell id="3Hj_yJd5IUHqJ45RKS4R-69" value="" style="endArrow=classic;html=1;rounded=0;curved=1;strokeWidth=2;" edge="1" parent="1">
          <mxGeometry width="50" height="50" relative="1" as="geometry">
            <mxPoint x="-79" y="-810" as="sourcePoint" />
            <mxPoint x="-79" y="-763" as="targetPoint" />
          </mxGeometry>
        </mxCell>
        <mxCell id="3Hj_yJd5IUHqJ45RKS4R-70" value="&lt;font face=&quot;Comic Sans MS&quot;&gt;&lt;span style=&quot;font-size: 24px;&quot;&gt;第一级索引&lt;/span&gt;&lt;/font&gt;" style="text;html=1;align=center;verticalAlign=middle;resizable=0;points=[];autosize=1;strokeColor=none;fillColor=none;" vertex="1" parent="1">
          <mxGeometry x="-843" y="-844" width="138" height="41" as="geometry" />
        </mxCell>
        <mxCell id="3Hj_yJd5IUHqJ45RKS4R-110" value="&lt;font face=&quot;Comic Sans MS&quot; style=&quot;font-size: 24px;&quot;&gt;1&lt;/font&gt;" style="rounded=1;whiteSpace=wrap;html=1;fillColor=#d5e8d4;strokeColor=#82b366;strokeWidth=3;shadow=0;" vertex="1" parent="1">
          <mxGeometry x="-693" y="-354" width="44" height="31" as="geometry" />
        </mxCell>
        <mxCell id="3Hj_yJd5IUHqJ45RKS4R-111" value="" style="rounded=1;whiteSpace=wrap;html=1;fillColor=#fff2cc;strokeColor=#d6b656;strokeWidth=3;shadow=0;" vertex="1" parent="1">
          <mxGeometry x="-646" y="-354" width="23" height="31" as="geometry" />
        </mxCell>
        <mxCell id="3Hj_yJd5IUHqJ45RKS4R-112" value="&lt;font face=&quot;Comic Sans MS&quot; style=&quot;font-size: 24px;&quot;&gt;2&lt;/font&gt;" style="rounded=1;whiteSpace=wrap;html=1;fillColor=#d5e8d4;strokeColor=#82b366;strokeWidth=3;shadow=0;" vertex="1" parent="1">
          <mxGeometry x="-599" y="-353" width="44" height="31" as="geometry" />
        </mxCell>
        <mxCell id="3Hj_yJd5IUHqJ45RKS4R-113" value="" style="rounded=1;whiteSpace=wrap;html=1;fillColor=#fff2cc;strokeColor=#d6b656;strokeWidth=3;shadow=0;" vertex="1" parent="1">
          <mxGeometry x="-552" y="-353" width="23" height="31" as="geometry" />
        </mxCell>
        <mxCell id="3Hj_yJd5IUHqJ45RKS4R-114" value="&lt;font face=&quot;Comic Sans MS&quot; style=&quot;font-size: 24px;&quot;&gt;4&lt;/font&gt;" style="rounded=1;whiteSpace=wrap;html=1;fillColor=#d5e8d4;strokeColor=#82b366;strokeWidth=3;shadow=0;" vertex="1" parent="1">
          <mxGeometry x="-505" y="-352" width="44" height="31" as="geometry" />
        </mxCell>
        <mxCell id="3Hj_yJd5IUHqJ45RKS4R-115" value="" style="rounded=1;whiteSpace=wrap;html=1;fillColor=#fff2cc;strokeColor=#d6b656;strokeWidth=3;shadow=0;" vertex="1" parent="1">
          <mxGeometry x="-458" y="-352" width="23" height="31" as="geometry" />
        </mxCell>
        <mxCell id="3Hj_yJd5IUHqJ45RKS4R-116" value="&lt;font face=&quot;Comic Sans MS&quot; style=&quot;font-size: 24px;&quot;&gt;7&lt;/font&gt;" style="rounded=1;whiteSpace=wrap;html=1;fillColor=#d5e8d4;strokeColor=#82b366;strokeWidth=3;shadow=0;" vertex="1" parent="1">
          <mxGeometry x="-411" y="-351" width="44" height="31" as="geometry" />
        </mxCell>
        <mxCell id="3Hj_yJd5IUHqJ45RKS4R-117" value="" style="rounded=1;whiteSpace=wrap;html=1;fillColor=#fff2cc;strokeColor=#d6b656;strokeWidth=3;shadow=0;" vertex="1" parent="1">
          <mxGeometry x="-364" y="-351" width="23" height="31" as="geometry" />
        </mxCell>
        <mxCell id="3Hj_yJd5IUHqJ45RKS4R-118" value="&lt;font face=&quot;Comic Sans MS&quot; style=&quot;font-size: 24px;&quot;&gt;15&lt;/font&gt;" style="rounded=1;whiteSpace=wrap;html=1;fillColor=#d5e8d4;strokeColor=#82b366;strokeWidth=3;shadow=0;" vertex="1" parent="1">
          <mxGeometry x="-315" y="-350" width="44" height="31" as="geometry" />
        </mxCell>
        <mxCell id="3Hj_yJd5IUHqJ45RKS4R-119" value="" style="rounded=1;whiteSpace=wrap;html=1;fillColor=#fff2cc;strokeColor=#d6b656;strokeWidth=3;shadow=0;" vertex="1" parent="1">
          <mxGeometry x="-268" y="-350" width="23" height="31" as="geometry" />
        </mxCell>
        <mxCell id="3Hj_yJd5IUHqJ45RKS4R-120" value="&lt;font face=&quot;Comic Sans MS&quot; style=&quot;font-size: 24px;&quot;&gt;24&lt;/font&gt;" style="rounded=1;whiteSpace=wrap;html=1;fillColor=#d5e8d4;strokeColor=#82b366;strokeWidth=3;shadow=0;" vertex="1" parent="1">
          <mxGeometry x="-221" y="-349" width="44" height="31" as="geometry" />
        </mxCell>
        <mxCell id="3Hj_yJd5IUHqJ45RKS4R-121" value="" style="rounded=1;whiteSpace=wrap;html=1;fillColor=#fff2cc;strokeColor=#d6b656;strokeWidth=3;shadow=0;" vertex="1" parent="1">
          <mxGeometry x="-174" y="-349" width="23" height="31" as="geometry" />
        </mxCell>
        <mxCell id="3Hj_yJd5IUHqJ45RKS4R-122" value="&lt;font face=&quot;Comic Sans MS&quot;&gt;&lt;span style=&quot;font-size: 24px;&quot;&gt;30&lt;/span&gt;&lt;/font&gt;" style="rounded=1;whiteSpace=wrap;html=1;fillColor=#d5e8d4;strokeColor=#82b366;strokeWidth=3;shadow=0;" vertex="1" parent="1">
          <mxGeometry x="-127" y="-348" width="44" height="31" as="geometry" />
        </mxCell>
        <mxCell id="3Hj_yJd5IUHqJ45RKS4R-123" value="" style="rounded=1;whiteSpace=wrap;html=1;fillColor=#fff2cc;strokeColor=#d6b656;strokeWidth=3;shadow=0;" vertex="1" parent="1">
          <mxGeometry x="-80" y="-348" width="23" height="31" as="geometry" />
        </mxCell>
        <mxCell id="3Hj_yJd5IUHqJ45RKS4R-124" value="&lt;font face=&quot;Comic Sans MS&quot; style=&quot;font-size: 24px;&quot;&gt;34&lt;/font&gt;" style="rounded=1;whiteSpace=wrap;html=1;fillColor=#d5e8d4;strokeColor=#82b366;strokeWidth=3;shadow=0;" vertex="1" parent="1">
          <mxGeometry x="-33" y="-347" width="44" height="31" as="geometry" />
        </mxCell>
        <mxCell id="3Hj_yJd5IUHqJ45RKS4R-125" value="&lt;font face=&quot;Comic Sans MS&quot; style=&quot;font-size: 20px;&quot;&gt;^&lt;/font&gt;" style="rounded=1;whiteSpace=wrap;html=1;fillColor=#fff2cc;strokeColor=#d6b656;strokeWidth=3;shadow=0;" vertex="1" parent="1">
          <mxGeometry x="14" y="-347" width="23" height="31" as="geometry" />
        </mxCell>
        <mxCell id="3Hj_yJd5IUHqJ45RKS4R-126" value="" style="endArrow=classic;html=1;rounded=0;entryX=0;entryY=0.5;entryDx=0;entryDy=0;curved=1;strokeWidth=2;" edge="1" parent="1">
          <mxGeometry width="50" height="50" relative="1" as="geometry">
            <mxPoint x="-631" y="-335" as="sourcePoint" />
            <mxPoint x="-602" y="-335" as="targetPoint" />
          </mxGeometry>
        </mxCell>
        <mxCell id="3Hj_yJd5IUHqJ45RKS4R-127" value="" style="endArrow=classic;html=1;rounded=0;entryX=0;entryY=0.5;entryDx=0;entryDy=0;strokeWidth=2;" edge="1" parent="1">
          <mxGeometry width="50" height="50" relative="1" as="geometry">
            <mxPoint x="-538" y="-335" as="sourcePoint" />
            <mxPoint x="-509" y="-335" as="targetPoint" />
          </mxGeometry>
        </mxCell>
        <mxCell id="3Hj_yJd5IUHqJ45RKS4R-128" value="" style="endArrow=classic;html=1;rounded=0;entryX=0;entryY=0.5;entryDx=0;entryDy=0;strokeWidth=2;" edge="1" parent="1">
          <mxGeometry width="50" height="50" relative="1" as="geometry">
            <mxPoint x="-443" y="-334" as="sourcePoint" />
            <mxPoint x="-414" y="-334" as="targetPoint" />
          </mxGeometry>
        </mxCell>
        <mxCell id="3Hj_yJd5IUHqJ45RKS4R-129" value="" style="endArrow=classic;html=1;rounded=0;entryX=0;entryY=0.5;entryDx=0;entryDy=0;strokeWidth=2;" edge="1" parent="1">
          <mxGeometry width="50" height="50" relative="1" as="geometry">
            <mxPoint x="-347" y="-334" as="sourcePoint" />
            <mxPoint x="-318" y="-334" as="targetPoint" />
          </mxGeometry>
        </mxCell>
        <mxCell id="3Hj_yJd5IUHqJ45RKS4R-130" value="" style="endArrow=classic;html=1;rounded=0;entryX=0;entryY=0.5;entryDx=0;entryDy=0;strokeWidth=2;" edge="1" parent="1">
          <mxGeometry width="50" height="50" relative="1" as="geometry">
            <mxPoint x="-254" y="-332" as="sourcePoint" />
            <mxPoint x="-225" y="-332" as="targetPoint" />
          </mxGeometry>
        </mxCell>
        <mxCell id="3Hj_yJd5IUHqJ45RKS4R-131" value="" style="endArrow=classic;html=1;rounded=0;entryX=0;entryY=0.5;entryDx=0;entryDy=0;strokeWidth=2;" edge="1" parent="1">
          <mxGeometry width="50" height="50" relative="1" as="geometry">
            <mxPoint x="-158" y="-331" as="sourcePoint" />
            <mxPoint x="-129" y="-331" as="targetPoint" />
          </mxGeometry>
        </mxCell>
        <mxCell id="3Hj_yJd5IUHqJ45RKS4R-132" value="" style="endArrow=classic;html=1;rounded=0;entryX=0;entryY=0.5;entryDx=0;entryDy=0;strokeWidth=2;" edge="1" parent="1">
          <mxGeometry width="50" height="50" relative="1" as="geometry">
            <mxPoint x="-65" y="-332" as="sourcePoint" />
            <mxPoint x="-36" y="-332" as="targetPoint" />
          </mxGeometry>
        </mxCell>
        <mxCell id="3Hj_yJd5IUHqJ45RKS4R-133" value="&lt;font face=&quot;Comic Sans MS&quot; style=&quot;font-size: 24px;&quot;&gt;1&lt;/font&gt;" style="rounded=1;whiteSpace=wrap;html=1;fillColor=#d5e8d4;strokeColor=#82b366;strokeWidth=3;shadow=0;" vertex="1" parent="1">
          <mxGeometry x="-692" y="-435" width="44" height="31" as="geometry" />
        </mxCell>
        <mxCell id="3Hj_yJd5IUHqJ45RKS4R-134" value="" style="rounded=1;whiteSpace=wrap;html=1;fillColor=#fff2cc;strokeColor=#d6b656;strokeWidth=3;shadow=0;" vertex="1" parent="1">
          <mxGeometry x="-645" y="-435" width="23" height="31" as="geometry" />
        </mxCell>
        <mxCell id="3Hj_yJd5IUHqJ45RKS4R-135" value="&lt;font face=&quot;Comic Sans MS&quot; style=&quot;font-size: 24px;&quot;&gt;4&lt;/font&gt;" style="rounded=1;whiteSpace=wrap;html=1;fillColor=#d5e8d4;strokeColor=#82b366;strokeWidth=3;shadow=0;" vertex="1" parent="1">
          <mxGeometry x="-507" y="-433" width="44" height="31" as="geometry" />
        </mxCell>
        <mxCell id="3Hj_yJd5IUHqJ45RKS4R-136" value="" style="rounded=1;whiteSpace=wrap;html=1;fillColor=#fff2cc;strokeColor=#d6b656;strokeWidth=3;shadow=0;" vertex="1" parent="1">
          <mxGeometry x="-460" y="-433" width="23" height="31" as="geometry" />
        </mxCell>
        <mxCell id="3Hj_yJd5IUHqJ45RKS4R-137" value="&lt;font face=&quot;Comic Sans MS&quot; style=&quot;font-size: 24px;&quot;&gt;15&lt;/font&gt;" style="rounded=1;whiteSpace=wrap;html=1;fillColor=#d5e8d4;strokeColor=#82b366;strokeWidth=3;shadow=0;" vertex="1" parent="1">
          <mxGeometry x="-320" y="-435" width="44" height="31" as="geometry" />
        </mxCell>
        <mxCell id="3Hj_yJd5IUHqJ45RKS4R-138" value="" style="rounded=1;whiteSpace=wrap;html=1;fillColor=#fff2cc;strokeColor=#d6b656;strokeWidth=3;shadow=0;" vertex="1" parent="1">
          <mxGeometry x="-273" y="-435" width="23" height="31" as="geometry" />
        </mxCell>
        <mxCell id="3Hj_yJd5IUHqJ45RKS4R-139" value="&lt;font face=&quot;Comic Sans MS&quot;&gt;&lt;span style=&quot;font-size: 24px;&quot;&gt;30&lt;/span&gt;&lt;/font&gt;" style="rounded=1;whiteSpace=wrap;html=1;fillColor=#d5e8d4;strokeColor=#82b366;strokeWidth=3;shadow=0;" vertex="1" parent="1">
          <mxGeometry x="-129" y="-434" width="44" height="31" as="geometry" />
        </mxCell>
        <mxCell id="3Hj_yJd5IUHqJ45RKS4R-140" value="" style="rounded=1;whiteSpace=wrap;html=1;fillColor=#fff2cc;strokeColor=#d6b656;strokeWidth=3;shadow=0;" vertex="1" parent="1">
          <mxGeometry x="-82" y="-434" width="23" height="31" as="geometry" />
        </mxCell>
        <mxCell id="3Hj_yJd5IUHqJ45RKS4R-141" value="" style="endArrow=classic;html=1;rounded=0;curved=1;strokeWidth=2;" edge="1" parent="1">
          <mxGeometry width="50" height="50" relative="1" as="geometry">
            <mxPoint x="-632" y="-418" as="sourcePoint" />
            <mxPoint x="-511" y="-418" as="targetPoint" />
          </mxGeometry>
        </mxCell>
        <mxCell id="3Hj_yJd5IUHqJ45RKS4R-142" value="" style="endArrow=classic;html=1;rounded=0;curved=1;strokeWidth=2;" edge="1" parent="1">
          <mxGeometry width="50" height="50" relative="1" as="geometry">
            <mxPoint x="-446" y="-417" as="sourcePoint" />
            <mxPoint x="-325" y="-417" as="targetPoint" />
          </mxGeometry>
        </mxCell>
        <mxCell id="3Hj_yJd5IUHqJ45RKS4R-143" value="" style="endArrow=classic;html=1;rounded=0;curved=1;strokeWidth=2;" edge="1" parent="1">
          <mxGeometry width="50" height="50" relative="1" as="geometry">
            <mxPoint x="-257" y="-418" as="sourcePoint" />
            <mxPoint x="-136" y="-418" as="targetPoint" />
          </mxGeometry>
        </mxCell>
        <mxCell id="3Hj_yJd5IUHqJ45RKS4R-144" value="" style="endArrow=classic;html=1;rounded=0;curved=1;strokeWidth=2;" edge="1" parent="1">
          <mxGeometry width="50" height="50" relative="1" as="geometry">
            <mxPoint x="-634" y="-407" as="sourcePoint" />
            <mxPoint x="-634" y="-360" as="targetPoint" />
          </mxGeometry>
        </mxCell>
        <mxCell id="3Hj_yJd5IUHqJ45RKS4R-145" value="" style="endArrow=classic;html=1;rounded=0;curved=1;strokeWidth=2;" edge="1" parent="1">
          <mxGeometry width="50" height="50" relative="1" as="geometry">
            <mxPoint x="-448" y="-405" as="sourcePoint" />
            <mxPoint x="-448" y="-358" as="targetPoint" />
          </mxGeometry>
        </mxCell>
        <mxCell id="3Hj_yJd5IUHqJ45RKS4R-146" value="" style="endArrow=classic;html=1;rounded=0;curved=1;strokeWidth=2;fillColor=#f8cecc;strokeColor=#b85450;" edge="1" parent="1">
          <mxGeometry width="50" height="50" relative="1" as="geometry">
            <mxPoint x="-260" y="-406" as="sourcePoint" />
            <mxPoint x="-260" y="-359" as="targetPoint" />
          </mxGeometry>
        </mxCell>
        <mxCell id="3Hj_yJd5IUHqJ45RKS4R-147" value="" style="endArrow=classic;html=1;rounded=0;curved=1;strokeWidth=2;" edge="1" parent="1">
          <mxGeometry width="50" height="50" relative="1" as="geometry">
            <mxPoint x="-68" y="-408" as="sourcePoint" />
            <mxPoint x="-68" y="-361" as="targetPoint" />
          </mxGeometry>
        </mxCell>
        <mxCell id="3Hj_yJd5IUHqJ45RKS4R-148" value="&lt;font face=&quot;Comic Sans MS&quot;&gt;&lt;span style=&quot;font-size: 24px;&quot;&gt;第一级索引&lt;/span&gt;&lt;/font&gt;" style="text;html=1;align=center;verticalAlign=middle;resizable=0;points=[];autosize=1;strokeColor=none;fillColor=none;" vertex="1" parent="1">
          <mxGeometry x="-832" y="-442" width="138" height="41" as="geometry" />
        </mxCell>
        <mxCell id="3Hj_yJd5IUHqJ45RKS4R-149" value="&lt;font face=&quot;Comic Sans MS&quot; style=&quot;font-size: 24px;&quot;&gt;1&lt;/font&gt;" style="rounded=1;whiteSpace=wrap;html=1;fillColor=#d5e8d4;strokeColor=#82b366;strokeWidth=3;shadow=0;" vertex="1" parent="1">
          <mxGeometry x="-693" y="-512" width="44" height="31" as="geometry" />
        </mxCell>
        <mxCell id="3Hj_yJd5IUHqJ45RKS4R-150" value="" style="rounded=1;whiteSpace=wrap;html=1;fillColor=#fff2cc;strokeColor=#d6b656;strokeWidth=3;shadow=0;" vertex="1" parent="1">
          <mxGeometry x="-646" y="-512" width="23" height="31" as="geometry" />
        </mxCell>
        <mxCell id="3Hj_yJd5IUHqJ45RKS4R-151" value="" style="endArrow=classic;html=1;rounded=0;curved=1;strokeWidth=2;" edge="1" parent="1">
          <mxGeometry width="50" height="50" relative="1" as="geometry">
            <mxPoint x="-634" y="-488" as="sourcePoint" />
            <mxPoint x="-634" y="-441" as="targetPoint" />
          </mxGeometry>
        </mxCell>
        <mxCell id="3Hj_yJd5IUHqJ45RKS4R-154" value="&lt;font face=&quot;Comic Sans MS&quot; style=&quot;font-size: 24px;&quot;&gt;15&lt;/font&gt;" style="rounded=1;whiteSpace=wrap;html=1;fillColor=#d5e8d4;strokeColor=#82b366;strokeWidth=3;shadow=0;" vertex="1" parent="1">
          <mxGeometry x="-321" y="-511" width="44" height="31" as="geometry" />
        </mxCell>
        <mxCell id="3Hj_yJd5IUHqJ45RKS4R-155" value="" style="rounded=1;whiteSpace=wrap;html=1;fillColor=#fff2cc;strokeColor=#d6b656;strokeWidth=3;shadow=0;" vertex="1" parent="1">
          <mxGeometry x="-274" y="-511" width="23" height="31" as="geometry" />
        </mxCell>
        <mxCell id="3Hj_yJd5IUHqJ45RKS4R-156" value="" style="endArrow=classic;html=1;rounded=0;curved=1;strokeWidth=2;fillColor=#f8cecc;strokeColor=#b85450;" edge="1" parent="1">
          <mxGeometry width="50" height="50" relative="1" as="geometry">
            <mxPoint x="-262" y="-486" as="sourcePoint" />
            <mxPoint x="-262" y="-439" as="targetPoint" />
          </mxGeometry>
        </mxCell>
        <mxCell id="3Hj_yJd5IUHqJ45RKS4R-157" value="" style="endArrow=classic;html=1;rounded=0;curved=1;strokeWidth=2;fillColor=#f8cecc;strokeColor=#b85450;" edge="1" parent="1">
          <mxGeometry width="50" height="50" relative="1" as="geometry">
            <mxPoint x="-629" y="-496" as="sourcePoint" />
            <mxPoint x="-329" y="-495" as="targetPoint" />
          </mxGeometry>
        </mxCell>
        <mxCell id="3Hj_yJd5IUHqJ45RKS4R-158" value="&lt;font face=&quot;Comic Sans MS&quot;&gt;&lt;span style=&quot;font-size: 24px;&quot;&gt;第二级索引&lt;/span&gt;&lt;/font&gt;" style="text;html=1;align=center;verticalAlign=middle;resizable=0;points=[];autosize=1;strokeColor=none;fillColor=none;" vertex="1" parent="1">
          <mxGeometry x="-834" y="-520" width="138" height="41" as="geometry" />
        </mxCell>
        <mxCell id="3Hj_yJd5IUHqJ45RKS4R-159" value="&lt;font face=&quot;Comic Sans MS&quot; style=&quot;font-size: 24px;&quot;&gt;1&lt;/font&gt;" style="rounded=1;whiteSpace=wrap;html=1;fillColor=#d5e8d4;strokeColor=#82b366;strokeWidth=3;shadow=0;" vertex="1" parent="1">
          <mxGeometry x="-682" y="-6" width="44" height="31" as="geometry" />
        </mxCell>
        <mxCell id="3Hj_yJd5IUHqJ45RKS4R-160" value="" style="rounded=1;whiteSpace=wrap;html=1;fillColor=#fff2cc;strokeColor=#d6b656;strokeWidth=3;shadow=0;" vertex="1" parent="1">
          <mxGeometry x="-635" y="-6" width="23" height="31" as="geometry" />
        </mxCell>
        <mxCell id="3Hj_yJd5IUHqJ45RKS4R-175" value="" style="endArrow=classic;html=1;rounded=0;entryX=0;entryY=0.5;entryDx=0;entryDy=0;curved=1;strokeWidth=2;" edge="1" parent="1">
          <mxGeometry width="50" height="50" relative="1" as="geometry">
            <mxPoint x="-620" y="13" as="sourcePoint" />
            <mxPoint x="-591" y="13" as="targetPoint" />
          </mxGeometry>
        </mxCell>
        <mxCell id="3Hj_yJd5IUHqJ45RKS4R-182" value="&lt;font face=&quot;Comic Sans MS&quot; style=&quot;font-size: 24px;&quot;&gt;1&lt;/font&gt;" style="rounded=1;whiteSpace=wrap;html=1;fillColor=#d5e8d4;strokeColor=#82b366;strokeWidth=3;shadow=0;" vertex="1" parent="1">
          <mxGeometry x="-683" y="-160" width="44" height="31" as="geometry" />
        </mxCell>
        <mxCell id="3Hj_yJd5IUHqJ45RKS4R-183" value="" style="rounded=1;whiteSpace=wrap;html=1;fillColor=#fff2cc;strokeColor=#d6b656;strokeWidth=3;shadow=0;" vertex="1" parent="1">
          <mxGeometry x="-636" y="-160" width="23" height="31" as="geometry" />
        </mxCell>
        <mxCell id="3Hj_yJd5IUHqJ45RKS4R-184" value="&lt;font face=&quot;Comic Sans MS&quot; style=&quot;font-size: 24px;&quot;&gt;2500&lt;/font&gt;" style="rounded=1;whiteSpace=wrap;html=1;fillColor=#d5e8d4;strokeColor=#82b366;strokeWidth=3;shadow=0;" vertex="1" parent="1">
          <mxGeometry x="-465" y="-158" width="63" height="31" as="geometry" />
        </mxCell>
        <mxCell id="3Hj_yJd5IUHqJ45RKS4R-185" value="" style="rounded=1;whiteSpace=wrap;html=1;fillColor=#fff2cc;strokeColor=#d6b656;strokeWidth=3;shadow=0;" vertex="1" parent="1">
          <mxGeometry x="-399" y="-158" width="23" height="31" as="geometry" />
        </mxCell>
        <mxCell id="3Hj_yJd5IUHqJ45RKS4R-190" value="" style="endArrow=classic;html=1;rounded=0;curved=1;strokeWidth=2;" edge="1" parent="1">
          <mxGeometry width="50" height="50" relative="1" as="geometry">
            <mxPoint x="-623" y="-143" as="sourcePoint" />
            <mxPoint x="-470" y="-143" as="targetPoint" />
          </mxGeometry>
        </mxCell>
        <mxCell id="3Hj_yJd5IUHqJ45RKS4R-191" value="" style="endArrow=classic;html=1;rounded=0;curved=1;strokeWidth=2;" edge="1" parent="1">
          <mxGeometry width="50" height="50" relative="1" as="geometry">
            <mxPoint x="-386" y="-142" as="sourcePoint" />
            <mxPoint x="-175" y="-143" as="targetPoint" />
          </mxGeometry>
        </mxCell>
        <mxCell id="3Hj_yJd5IUHqJ45RKS4R-193" value="" style="endArrow=classic;html=1;rounded=0;curved=1;strokeWidth=2;" edge="1" parent="1">
          <mxGeometry width="50" height="50" relative="1" as="geometry">
            <mxPoint x="-625" y="-132" as="sourcePoint" />
            <mxPoint x="-625" y="-85" as="targetPoint" />
          </mxGeometry>
        </mxCell>
        <mxCell id="3Hj_yJd5IUHqJ45RKS4R-194" value="" style="endArrow=classic;html=1;rounded=0;curved=1;strokeWidth=2;" edge="1" parent="1">
          <mxGeometry width="50" height="50" relative="1" as="geometry">
            <mxPoint x="-388" y="-133" as="sourcePoint" />
            <mxPoint x="-388" y="-86" as="targetPoint" />
          </mxGeometry>
        </mxCell>
        <mxCell id="3Hj_yJd5IUHqJ45RKS4R-197" value="&lt;font face=&quot;Comic Sans MS&quot;&gt;&lt;span style=&quot;font-size: 24px;&quot;&gt;次级索引&lt;/span&gt;&lt;/font&gt;" style="text;html=1;align=center;verticalAlign=middle;resizable=0;points=[];autosize=1;strokeColor=none;fillColor=none;" vertex="1" parent="1">
          <mxGeometry x="-811" y="-167" width="114" height="41" as="geometry" />
        </mxCell>
        <mxCell id="3Hj_yJd5IUHqJ45RKS4R-198" value="&lt;font face=&quot;Comic Sans MS&quot; style=&quot;font-size: 24px;&quot;&gt;1&lt;/font&gt;" style="rounded=1;whiteSpace=wrap;html=1;fillColor=#d5e8d4;strokeColor=#82b366;strokeWidth=3;shadow=0;" vertex="1" parent="1">
          <mxGeometry x="-684" y="-237" width="44" height="31" as="geometry" />
        </mxCell>
        <mxCell id="3Hj_yJd5IUHqJ45RKS4R-199" value="" style="rounded=1;whiteSpace=wrap;html=1;fillColor=#fff2cc;strokeColor=#d6b656;strokeWidth=3;shadow=0;" vertex="1" parent="1">
          <mxGeometry x="-637" y="-237" width="23" height="31" as="geometry" />
        </mxCell>
        <mxCell id="3Hj_yJd5IUHqJ45RKS4R-200" value="" style="endArrow=classic;html=1;rounded=0;curved=1;strokeWidth=2;" edge="1" parent="1">
          <mxGeometry width="50" height="50" relative="1" as="geometry">
            <mxPoint x="-625" y="-213" as="sourcePoint" />
            <mxPoint x="-625" y="-166" as="targetPoint" />
          </mxGeometry>
        </mxCell>
        <mxCell id="3Hj_yJd5IUHqJ45RKS4R-201" value="&lt;font face=&quot;Comic Sans MS&quot; style=&quot;font-size: 24px;&quot;&gt;5000&lt;/font&gt;" style="rounded=1;whiteSpace=wrap;html=1;fillColor=#d5e8d4;strokeColor=#82b366;strokeWidth=3;shadow=0;" vertex="1" parent="1">
          <mxGeometry x="-167" y="-237" width="65" height="31" as="geometry" />
        </mxCell>
        <mxCell id="3Hj_yJd5IUHqJ45RKS4R-202" value="" style="rounded=1;whiteSpace=wrap;html=1;fillColor=#fff2cc;strokeColor=#d6b656;strokeWidth=3;shadow=0;" vertex="1" parent="1">
          <mxGeometry x="-99" y="-237" width="23" height="31" as="geometry" />
        </mxCell>
        <mxCell id="3Hj_yJd5IUHqJ45RKS4R-203" value="" style="endArrow=classic;html=1;rounded=0;curved=1;strokeWidth=2;" edge="1" parent="1">
          <mxGeometry width="50" height="50" relative="1" as="geometry">
            <mxPoint x="-89" y="-210" as="sourcePoint" />
            <mxPoint x="-89" y="-163" as="targetPoint" />
          </mxGeometry>
        </mxCell>
        <mxCell id="3Hj_yJd5IUHqJ45RKS4R-204" value="" style="endArrow=classic;html=1;rounded=0;curved=1;strokeWidth=2;" edge="1" parent="1">
          <mxGeometry width="50" height="50" relative="1" as="geometry">
            <mxPoint x="-620" y="-221" as="sourcePoint" />
            <mxPoint x="-174" y="-221" as="targetPoint" />
          </mxGeometry>
        </mxCell>
        <mxCell id="3Hj_yJd5IUHqJ45RKS4R-205" value="&lt;font face=&quot;Comic Sans MS&quot;&gt;&lt;span style=&quot;font-size: 24px;&quot;&gt;最高级索引&lt;/span&gt;&lt;/font&gt;" style="text;html=1;align=center;verticalAlign=middle;resizable=0;points=[];autosize=1;strokeColor=none;fillColor=none;" vertex="1" parent="1">
          <mxGeometry x="-825" y="-245" width="138" height="41" as="geometry" />
        </mxCell>
        <mxCell id="3Hj_yJd5IUHqJ45RKS4R-206" value="&lt;font face=&quot;Comic Sans MS&quot; style=&quot;font-size: 24px;&quot;&gt;5000&lt;/font&gt;" style="rounded=1;whiteSpace=wrap;html=1;fillColor=#d5e8d4;strokeColor=#82b366;strokeWidth=3;shadow=0;" vertex="1" parent="1">
          <mxGeometry x="-167" y="-159" width="65" height="31" as="geometry" />
        </mxCell>
        <mxCell id="3Hj_yJd5IUHqJ45RKS4R-207" value="" style="rounded=1;whiteSpace=wrap;html=1;fillColor=#fff2cc;strokeColor=#d6b656;strokeWidth=3;shadow=0;" vertex="1" parent="1">
          <mxGeometry x="-99" y="-159" width="23" height="31" as="geometry" />
        </mxCell>
        <mxCell id="3Hj_yJd5IUHqJ45RKS4R-192" value="" style="endArrow=classic;html=1;rounded=0;curved=1;strokeWidth=2;" edge="1" parent="1">
          <mxGeometry width="50" height="50" relative="1" as="geometry">
            <mxPoint x="-89" y="-142" as="sourcePoint" />
            <mxPoint x="116" y="-142" as="targetPoint" />
          </mxGeometry>
        </mxCell>
        <mxCell id="3Hj_yJd5IUHqJ45RKS4R-208" value="&lt;font face=&quot;Comic Sans MS&quot; style=&quot;font-size: 24px;&quot;&gt;7500&lt;/font&gt;" style="rounded=1;whiteSpace=wrap;html=1;fillColor=#d5e8d4;strokeColor=#82b366;strokeWidth=3;shadow=0;" vertex="1" parent="1">
          <mxGeometry x="123" y="-161" width="65" height="31" as="geometry" />
        </mxCell>
        <mxCell id="3Hj_yJd5IUHqJ45RKS4R-209" value="" style="rounded=1;whiteSpace=wrap;html=1;fillColor=#fff2cc;strokeColor=#d6b656;strokeWidth=3;shadow=0;" vertex="1" parent="1">
          <mxGeometry x="191" y="-161" width="23" height="31" as="geometry" />
        </mxCell>
        <mxCell id="3Hj_yJd5IUHqJ45RKS4R-196" value="" style="endArrow=classic;html=1;rounded=0;curved=1;strokeWidth=2;" edge="1" parent="1">
          <mxGeometry width="50" height="50" relative="1" as="geometry">
            <mxPoint x="203" y="-136" as="sourcePoint" />
            <mxPoint x="203" y="-89" as="targetPoint" />
          </mxGeometry>
        </mxCell>
        <mxCell id="3Hj_yJd5IUHqJ45RKS4R-195" value="" style="endArrow=classic;html=1;rounded=0;curved=1;strokeWidth=2;" edge="1" parent="1">
          <mxGeometry width="50" height="50" relative="1" as="geometry">
            <mxPoint x="-88" y="-133" as="sourcePoint" />
            <mxPoint x="-88" y="-86" as="targetPoint" />
          </mxGeometry>
        </mxCell>
        <mxCell id="3Hj_yJd5IUHqJ45RKS4R-210" value="" style="endArrow=classic;html=1;rounded=0;curved=1;strokeWidth=2;" edge="1" parent="1">
          <mxGeometry width="50" height="50" relative="1" as="geometry">
            <mxPoint x="-624" y="-42" as="sourcePoint" />
            <mxPoint x="-624" y="5" as="targetPoint" />
          </mxGeometry>
        </mxCell>
        <mxCell id="3Hj_yJd5IUHqJ45RKS4R-212" value="" style="endArrow=none;dashed=1;html=1;dashPattern=1 3;strokeWidth=2;rounded=0;" edge="1" parent="1">
          <mxGeometry width="50" height="50" relative="1" as="geometry">
            <mxPoint x="-625" y="-50" as="sourcePoint" />
            <mxPoint x="-625" y="-80" as="targetPoint" />
          </mxGeometry>
        </mxCell>
        <mxCell id="3Hj_yJd5IUHqJ45RKS4R-213" value="&lt;font face=&quot;Comic Sans MS&quot; style=&quot;font-size: 24px;&quot;&gt;2500&lt;/font&gt;" style="rounded=1;whiteSpace=wrap;html=1;fillColor=#d5e8d4;strokeColor=#82b366;strokeWidth=3;shadow=0;" vertex="1" parent="1">
          <mxGeometry x="-466" y="-6" width="63" height="31" as="geometry" />
        </mxCell>
        <mxCell id="3Hj_yJd5IUHqJ45RKS4R-214" value="" style="rounded=1;whiteSpace=wrap;html=1;fillColor=#fff2cc;strokeColor=#d6b656;strokeWidth=3;shadow=0;" vertex="1" parent="1">
          <mxGeometry x="-400" y="-6" width="23" height="31" as="geometry" />
        </mxCell>
        <mxCell id="3Hj_yJd5IUHqJ45RKS4R-215" value="&lt;font face=&quot;Comic Sans MS&quot; style=&quot;font-size: 24px;&quot;&gt;2&lt;/font&gt;" style="rounded=1;whiteSpace=wrap;html=1;fillColor=#d5e8d4;strokeColor=#82b366;strokeWidth=3;shadow=0;" vertex="1" parent="1">
          <mxGeometry x="-589" y="-6" width="44" height="31" as="geometry" />
        </mxCell>
        <mxCell id="3Hj_yJd5IUHqJ45RKS4R-216" value="" style="rounded=1;whiteSpace=wrap;html=1;fillColor=#fff2cc;strokeColor=#d6b656;strokeWidth=3;shadow=0;" vertex="1" parent="1">
          <mxGeometry x="-542" y="-6" width="23" height="31" as="geometry" />
        </mxCell>
        <mxCell id="3Hj_yJd5IUHqJ45RKS4R-217" value="" style="endArrow=classic;html=1;rounded=0;curved=1;strokeWidth=2;" edge="1" parent="1">
          <mxGeometry width="50" height="50" relative="1" as="geometry">
            <mxPoint x="-387" y="-46" as="sourcePoint" />
            <mxPoint x="-387" y="1" as="targetPoint" />
          </mxGeometry>
        </mxCell>
        <mxCell id="3Hj_yJd5IUHqJ45RKS4R-218" value="" style="endArrow=none;dashed=1;html=1;dashPattern=1 3;strokeWidth=2;rounded=0;" edge="1" parent="1">
          <mxGeometry width="50" height="50" relative="1" as="geometry">
            <mxPoint x="-388" y="-54" as="sourcePoint" />
            <mxPoint x="-388" y="-84" as="targetPoint" />
          </mxGeometry>
        </mxCell>
        <mxCell id="3Hj_yJd5IUHqJ45RKS4R-220" value="" style="endArrow=classic;html=1;rounded=0;entryX=0;entryY=0.5;entryDx=0;entryDy=0;curved=1;strokeWidth=2;" edge="1" parent="1">
          <mxGeometry width="50" height="50" relative="1" as="geometry">
            <mxPoint x="-532" y="13" as="sourcePoint" />
            <mxPoint x="-503" y="13" as="targetPoint" />
          </mxGeometry>
        </mxCell>
        <mxCell id="3Hj_yJd5IUHqJ45RKS4R-221" value="" style="endArrow=none;dashed=1;html=1;dashPattern=1 3;strokeWidth=2;rounded=0;" edge="1" parent="1">
          <mxGeometry width="50" height="50" relative="1" as="geometry">
            <mxPoint x="-476" y="12" as="sourcePoint" />
            <mxPoint x="-504" y="12" as="targetPoint" />
          </mxGeometry>
        </mxCell>
        <mxCell id="3Hj_yJd5IUHqJ45RKS4R-222" value="" style="endArrow=classic;html=1;rounded=0;entryX=0;entryY=0.5;entryDx=0;entryDy=0;curved=1;strokeWidth=2;" edge="1" parent="1">
          <mxGeometry width="50" height="50" relative="1" as="geometry">
            <mxPoint x="-489" y="12" as="sourcePoint" />
            <mxPoint x="-460" y="12" as="targetPoint" />
          </mxGeometry>
        </mxCell>
        <mxCell id="3Hj_yJd5IUHqJ45RKS4R-223" value="" style="endArrow=classic;html=1;rounded=0;entryX=0;entryY=0.5;entryDx=0;entryDy=0;curved=1;strokeWidth=2;" edge="1" parent="1">
          <mxGeometry width="50" height="50" relative="1" as="geometry">
            <mxPoint x="-385" y="13" as="sourcePoint" />
            <mxPoint x="-356" y="13" as="targetPoint" />
          </mxGeometry>
        </mxCell>
        <mxCell id="3Hj_yJd5IUHqJ45RKS4R-228" value="&lt;font face=&quot;Comic Sans MS&quot; style=&quot;font-size: 24px;&quot;&gt;2501&lt;/font&gt;" style="rounded=1;whiteSpace=wrap;html=1;fillColor=#d5e8d4;strokeColor=#82b366;strokeWidth=3;shadow=0;" vertex="1" parent="1">
          <mxGeometry x="-354" y="-5" width="63" height="31" as="geometry" />
        </mxCell>
        <mxCell id="3Hj_yJd5IUHqJ45RKS4R-229" value="" style="rounded=1;whiteSpace=wrap;html=1;fillColor=#fff2cc;strokeColor=#d6b656;strokeWidth=3;shadow=0;" vertex="1" parent="1">
          <mxGeometry x="-288" y="-5" width="23" height="31" as="geometry" />
        </mxCell>
        <mxCell id="3Hj_yJd5IUHqJ45RKS4R-230" value="" style="endArrow=classic;html=1;rounded=0;entryX=0;entryY=0.5;entryDx=0;entryDy=0;curved=1;strokeWidth=2;" edge="1" parent="1">
          <mxGeometry width="50" height="50" relative="1" as="geometry">
            <mxPoint x="-278" y="13" as="sourcePoint" />
            <mxPoint x="-249" y="13" as="targetPoint" />
          </mxGeometry>
        </mxCell>
        <mxCell id="3Hj_yJd5IUHqJ45RKS4R-231" value="" style="endArrow=none;dashed=1;html=1;dashPattern=1 3;strokeWidth=2;rounded=0;" edge="1" parent="1">
          <mxGeometry width="50" height="50" relative="1" as="geometry">
            <mxPoint x="-210" y="13" as="sourcePoint" />
            <mxPoint x="-249" y="13" as="targetPoint" />
          </mxGeometry>
        </mxCell>
        <mxCell id="3Hj_yJd5IUHqJ45RKS4R-232" value="" style="endArrow=classic;html=1;rounded=0;curved=1;strokeWidth=2;" edge="1" parent="1">
          <mxGeometry width="50" height="50" relative="1" as="geometry">
            <mxPoint x="-207" y="12" as="sourcePoint" />
            <mxPoint x="-171" y="11" as="targetPoint" />
          </mxGeometry>
        </mxCell>
        <mxCell id="3Hj_yJd5IUHqJ45RKS4R-233" value="&lt;font face=&quot;Comic Sans MS&quot; style=&quot;font-size: 24px;&quot;&gt;5000&lt;/font&gt;" style="rounded=1;whiteSpace=wrap;html=1;fillColor=#d5e8d4;strokeColor=#82b366;strokeWidth=3;shadow=0;" vertex="1" parent="1">
          <mxGeometry x="-168" y="-4" width="65" height="31" as="geometry" />
        </mxCell>
        <mxCell id="3Hj_yJd5IUHqJ45RKS4R-234" value="" style="rounded=1;whiteSpace=wrap;html=1;fillColor=#fff2cc;strokeColor=#d6b656;strokeWidth=3;shadow=0;" vertex="1" parent="1">
          <mxGeometry x="-100" y="-4" width="23" height="31" as="geometry" />
        </mxCell>
        <mxCell id="3Hj_yJd5IUHqJ45RKS4R-237" value="" style="endArrow=classic;html=1;rounded=0;curved=1;strokeWidth=2;" edge="1" parent="1">
          <mxGeometry width="50" height="50" relative="1" as="geometry">
            <mxPoint x="-87" y="-49" as="sourcePoint" />
            <mxPoint x="-87" y="-2" as="targetPoint" />
          </mxGeometry>
        </mxCell>
        <mxCell id="3Hj_yJd5IUHqJ45RKS4R-238" value="" style="endArrow=none;dashed=1;html=1;dashPattern=1 3;strokeWidth=2;rounded=0;" edge="1" parent="1">
          <mxGeometry width="50" height="50" relative="1" as="geometry">
            <mxPoint x="-88" y="-57" as="sourcePoint" />
            <mxPoint x="-88" y="-87" as="targetPoint" />
          </mxGeometry>
        </mxCell>
        <mxCell id="3Hj_yJd5IUHqJ45RKS4R-240" value="" style="endArrow=classic;html=1;rounded=0;entryX=0;entryY=0.5;entryDx=0;entryDy=0;curved=1;strokeWidth=2;" edge="1" parent="1">
          <mxGeometry width="50" height="50" relative="1" as="geometry">
            <mxPoint x="-84" y="13" as="sourcePoint" />
            <mxPoint x="-55" y="13" as="targetPoint" />
          </mxGeometry>
        </mxCell>
        <mxCell id="3Hj_yJd5IUHqJ45RKS4R-241" value="&lt;font face=&quot;Comic Sans MS&quot; style=&quot;font-size: 24px;&quot;&gt;5001&lt;/font&gt;" style="rounded=1;whiteSpace=wrap;html=1;fillColor=#d5e8d4;strokeColor=#82b366;strokeWidth=3;shadow=0;" vertex="1" parent="1">
          <mxGeometry x="-53" y="-5" width="63" height="31" as="geometry" />
        </mxCell>
        <mxCell id="3Hj_yJd5IUHqJ45RKS4R-242" value="" style="rounded=1;whiteSpace=wrap;html=1;fillColor=#fff2cc;strokeColor=#d6b656;strokeWidth=3;shadow=0;" vertex="1" parent="1">
          <mxGeometry x="13" y="-5" width="23" height="31" as="geometry" />
        </mxCell>
        <mxCell id="3Hj_yJd5IUHqJ45RKS4R-243" value="" style="endArrow=classic;html=1;rounded=0;entryX=0;entryY=0.5;entryDx=0;entryDy=0;curved=1;strokeWidth=2;" edge="1" parent="1">
          <mxGeometry width="50" height="50" relative="1" as="geometry">
            <mxPoint x="23" y="13" as="sourcePoint" />
            <mxPoint x="52" y="13" as="targetPoint" />
          </mxGeometry>
        </mxCell>
        <mxCell id="3Hj_yJd5IUHqJ45RKS4R-244" value="" style="endArrow=none;dashed=1;html=1;dashPattern=1 3;strokeWidth=2;rounded=0;" edge="1" parent="1">
          <mxGeometry width="50" height="50" relative="1" as="geometry">
            <mxPoint x="91" y="13" as="sourcePoint" />
            <mxPoint x="52" y="13" as="targetPoint" />
          </mxGeometry>
        </mxCell>
        <mxCell id="3Hj_yJd5IUHqJ45RKS4R-245" value="" style="endArrow=classic;html=1;rounded=0;curved=1;strokeWidth=2;" edge="1" parent="1">
          <mxGeometry width="50" height="50" relative="1" as="geometry">
            <mxPoint x="95" y="13" as="sourcePoint" />
            <mxPoint x="124" y="12" as="targetPoint" />
          </mxGeometry>
        </mxCell>
        <mxCell id="3Hj_yJd5IUHqJ45RKS4R-246" value="&lt;font face=&quot;Comic Sans MS&quot; style=&quot;font-size: 24px;&quot;&gt;7500&lt;/font&gt;" style="rounded=1;whiteSpace=wrap;html=1;fillColor=#d5e8d4;strokeColor=#82b366;strokeWidth=3;shadow=0;" vertex="1" parent="1">
          <mxGeometry x="126" y="-1" width="65" height="31" as="geometry" />
        </mxCell>
        <mxCell id="3Hj_yJd5IUHqJ45RKS4R-247" value="" style="rounded=1;whiteSpace=wrap;html=1;fillColor=#fff2cc;strokeColor=#d6b656;strokeWidth=3;shadow=0;" vertex="1" parent="1">
          <mxGeometry x="194" y="-1" width="23" height="31" as="geometry" />
        </mxCell>
        <mxCell id="3Hj_yJd5IUHqJ45RKS4R-248" value="" style="endArrow=classic;html=1;rounded=0;curved=1;strokeWidth=2;" edge="1" parent="1">
          <mxGeometry width="50" height="50" relative="1" as="geometry">
            <mxPoint x="204" y="-49" as="sourcePoint" />
            <mxPoint x="204" y="-2" as="targetPoint" />
          </mxGeometry>
        </mxCell>
        <mxCell id="3Hj_yJd5IUHqJ45RKS4R-249" value="" style="endArrow=none;dashed=1;html=1;dashPattern=1 3;strokeWidth=2;rounded=0;" edge="1" parent="1">
          <mxGeometry width="50" height="50" relative="1" as="geometry">
            <mxPoint x="203" y="-57" as="sourcePoint" />
            <mxPoint x="203" y="-87" as="targetPoint" />
          </mxGeometry>
        </mxCell>
        <mxCell id="3Hj_yJd5IUHqJ45RKS4R-250" value="" style="endArrow=classic;html=1;rounded=0;entryX=0;entryY=0.5;entryDx=0;entryDy=0;curved=1;strokeWidth=2;" edge="1" parent="1">
          <mxGeometry width="50" height="50" relative="1" as="geometry">
            <mxPoint x="208" y="16" as="sourcePoint" />
            <mxPoint x="237" y="16" as="targetPoint" />
          </mxGeometry>
        </mxCell>
        <mxCell id="3Hj_yJd5IUHqJ45RKS4R-251" value="" style="endArrow=none;dashed=1;html=1;dashPattern=1 3;strokeWidth=2;rounded=0;" edge="1" parent="1">
          <mxGeometry width="50" height="50" relative="1" as="geometry">
            <mxPoint x="276" y="16" as="sourcePoint" />
            <mxPoint x="237" y="16" as="targetPoint" />
          </mxGeometry>
        </mxCell>
        <mxCell id="3Hj_yJd5IUHqJ45RKS4R-252" value="" style="endArrow=classic;html=1;rounded=0;curved=1;strokeWidth=2;" edge="1" parent="1">
          <mxGeometry width="50" height="50" relative="1" as="geometry">
            <mxPoint x="280" y="16" as="sourcePoint" />
            <mxPoint x="309" y="15" as="targetPoint" />
          </mxGeometry>
        </mxCell>
        <mxCell id="3Hj_yJd5IUHqJ45RKS4R-253" value="&lt;font face=&quot;Comic Sans MS&quot; style=&quot;font-size: 24px;&quot;&gt;9999&lt;/font&gt;" style="rounded=1;whiteSpace=wrap;html=1;fillColor=#d5e8d4;strokeColor=#82b366;strokeWidth=3;shadow=0;" vertex="1" parent="1">
          <mxGeometry x="311" y="-1" width="65" height="31" as="geometry" />
        </mxCell>
        <mxCell id="3Hj_yJd5IUHqJ45RKS4R-254" value="" style="rounded=1;whiteSpace=wrap;html=1;fillColor=#fff2cc;strokeColor=#d6b656;strokeWidth=3;shadow=0;" vertex="1" parent="1">
          <mxGeometry x="379" y="-1" width="23" height="31" as="geometry" />
        </mxCell>
        <mxCell id="3Hj_yJd5IUHqJ45RKS4R-256" value="&lt;font face=&quot;Comic Sans MS&quot;&gt;obj-1&lt;/font&gt;" style="rounded=0;whiteSpace=wrap;html=1;fillColor=#ffcccc;strokeColor=#36393d;" vertex="1" parent="1">
          <mxGeometry x="101" y="425" width="46" height="28" as="geometry" />
        </mxCell>
        <mxCell id="3Hj_yJd5IUHqJ45RKS4R-258" value="&lt;font face=&quot;Comic Sans MS&quot;&gt;obj-2&lt;/font&gt;" style="rounded=0;whiteSpace=wrap;html=1;fillColor=#cce5ff;strokeColor=#36393d;" vertex="1" parent="1">
          <mxGeometry x="147" y="425" width="76" height="28" as="geometry" />
        </mxCell>
        <mxCell id="3Hj_yJd5IUHqJ45RKS4R-260" value="&lt;font face=&quot;Comic Sans MS&quot;&gt;.......&lt;/font&gt;" style="rounded=0;whiteSpace=wrap;html=1;" vertex="1" parent="1">
          <mxGeometry x="223" y="425" width="76" height="28" as="geometry" />
        </mxCell>
        <mxCell id="3Hj_yJd5IUHqJ45RKS4R-261" value="&lt;font face=&quot;Comic Sans MS&quot;&gt;obj-N&lt;/font&gt;" style="rounded=0;whiteSpace=wrap;html=1;fillColor=#cdeb8b;strokeColor=#36393d;" vertex="1" parent="1">
          <mxGeometry x="299" y="425" width="55" height="28" as="geometry" />
        </mxCell>
        <mxCell id="3Hj_yJd5IUHqJ45RKS4R-263" value="&lt;font face=&quot;Comic Sans MS&quot;&gt;&lt;span style=&quot;font-size: 24px;&quot;&gt;别名方法&lt;/span&gt;&lt;/font&gt;" style="text;html=1;align=center;verticalAlign=middle;resizable=0;points=[];autosize=1;strokeColor=none;fillColor=none;" vertex="1" parent="1">
          <mxGeometry x="77" y="165" width="114" height="41" as="geometry" />
        </mxCell>
        <mxCell id="3Hj_yJd5IUHqJ45RKS4R-264" value="&lt;font style=&quot;font-size: 18px;&quot; face=&quot;Comic Sans MS&quot;&gt;规范虚拟页面&lt;/font&gt;" style="text;html=1;align=center;verticalAlign=middle;resizable=0;points=[];autosize=1;strokeColor=none;fillColor=none;" vertex="1" parent="1">
          <mxGeometry x="155" y="449" width="126" height="34" as="geometry" />
        </mxCell>
        <mxCell id="3Hj_yJd5IUHqJ45RKS4R-265" value="&lt;font face=&quot;Comic Sans MS&quot;&gt;obj-1&lt;/font&gt;" style="rounded=0;whiteSpace=wrap;html=1;fillColor=#ffcccc;strokeColor=#36393d;" vertex="1" parent="1">
          <mxGeometry x="403" y="425" width="46" height="28" as="geometry" />
        </mxCell>
        <mxCell id="3Hj_yJd5IUHqJ45RKS4R-266" value="&lt;font face=&quot;Comic Sans MS&quot;&gt;obj-2&lt;/font&gt;" style="rounded=0;whiteSpace=wrap;html=1;fillColor=#cce5ff;strokeColor=#36393d;" vertex="1" parent="1">
          <mxGeometry x="449" y="425" width="76" height="28" as="geometry" />
        </mxCell>
        <mxCell id="3Hj_yJd5IUHqJ45RKS4R-267" value="&lt;font face=&quot;Comic Sans MS&quot;&gt;.......&lt;/font&gt;" style="rounded=0;whiteSpace=wrap;html=1;" vertex="1" parent="1">
          <mxGeometry x="525" y="425" width="76" height="28" as="geometry" />
        </mxCell>
        <mxCell id="3Hj_yJd5IUHqJ45RKS4R-268" value="&lt;font face=&quot;Comic Sans MS&quot;&gt;obj-N&lt;/font&gt;" style="rounded=0;whiteSpace=wrap;html=1;fillColor=#cdeb8b;strokeColor=#36393d;" vertex="1" parent="1">
          <mxGeometry x="601" y="425" width="55" height="28" as="geometry" />
        </mxCell>
        <mxCell id="3Hj_yJd5IUHqJ45RKS4R-269" value="&lt;font style=&quot;font-size: 18px;&quot; face=&quot;Comic Sans MS&quot;&gt;物理页面&lt;/font&gt;" style="text;html=1;align=center;verticalAlign=middle;resizable=0;points=[];autosize=1;strokeColor=none;fillColor=none;" vertex="1" parent="1">
          <mxGeometry x="475" y="449" width="90" height="34" as="geometry" />
        </mxCell>
        <mxCell id="3Hj_yJd5IUHqJ45RKS4R-270" value="&lt;font face=&quot;Comic Sans MS&quot;&gt;obj-1&lt;/font&gt;" style="rounded=0;whiteSpace=wrap;html=1;fillColor=#ffcccc;strokeColor=#36393d;" vertex="1" parent="1">
          <mxGeometry x="99" y="251" width="46" height="28" as="geometry" />
        </mxCell>
        <mxCell id="3Hj_yJd5IUHqJ45RKS4R-271" value="" style="rounded=0;whiteSpace=wrap;html=1;" vertex="1" parent="1">
          <mxGeometry x="145" y="251" width="204" height="28" as="geometry" />
        </mxCell>
        <mxCell id="3Hj_yJd5IUHqJ45RKS4R-274" value="&lt;font style=&quot;font-size: 18px;&quot; face=&quot;Comic Sans MS&quot;&gt;别名虚拟页面&lt;/font&gt;" style="text;html=1;align=center;verticalAlign=middle;resizable=0;points=[];autosize=1;strokeColor=none;fillColor=none;" vertex="1" parent="1">
          <mxGeometry x="160" y="215" width="126" height="34" as="geometry" />
        </mxCell>
        <mxCell id="3Hj_yJd5IUHqJ45RKS4R-275" value="" style="rounded=0;whiteSpace=wrap;html=1;" vertex="1" parent="1">
          <mxGeometry x="98" y="297" width="46" height="28" as="geometry" />
        </mxCell>
        <mxCell id="3Hj_yJd5IUHqJ45RKS4R-276" value="&lt;font face=&quot;Comic Sans MS&quot;&gt;obj-2&lt;/font&gt;" style="rounded=0;whiteSpace=wrap;html=1;fillColor=#cce5ff;strokeColor=#36393d;" vertex="1" parent="1">
          <mxGeometry x="144" y="297" width="76" height="28" as="geometry" />
        </mxCell>
        <mxCell id="3Hj_yJd5IUHqJ45RKS4R-277" value="" style="rounded=0;whiteSpace=wrap;html=1;" vertex="1" parent="1">
          <mxGeometry x="220" y="297" width="131" height="28" as="geometry" />
        </mxCell>
        <mxCell id="3Hj_yJd5IUHqJ45RKS4R-279" value="" style="rounded=0;whiteSpace=wrap;html=1;" vertex="1" parent="1">
          <mxGeometry x="101" y="368" width="46" height="28" as="geometry" />
        </mxCell>
        <mxCell id="3Hj_yJd5IUHqJ45RKS4R-280" value="" style="rounded=0;whiteSpace=wrap;html=1;" vertex="1" parent="1">
          <mxGeometry x="99" y="368" width="201" height="28" as="geometry" />
        </mxCell>
        <mxCell id="3Hj_yJd5IUHqJ45RKS4R-282" value="&lt;font face=&quot;Comic Sans MS&quot;&gt;obj-N&lt;/font&gt;" style="rounded=0;whiteSpace=wrap;html=1;fillColor=#cdeb8b;strokeColor=#36393d;" vertex="1" parent="1">
          <mxGeometry x="299" y="368" width="55" height="28" as="geometry" />
        </mxCell>
        <mxCell id="3Hj_yJd5IUHqJ45RKS4R-283" value="" style="endArrow=none;dashed=1;html=1;dashPattern=1 3;strokeWidth=2;rounded=0;" edge="1" parent="1">
          <mxGeometry width="50" height="50" relative="1" as="geometry">
            <mxPoint x="229" y="363" as="sourcePoint" />
            <mxPoint x="229" y="326" as="targetPoint" />
          </mxGeometry>
        </mxCell>
        <mxCell id="3Hj_yJd5IUHqJ45RKS4R-284" value="" style="rounded=0;whiteSpace=wrap;html=1;" vertex="1" parent="1">
          <mxGeometry x="-560" y="164" width="608" height="326" as="geometry" />
        </mxCell>
        <mxCell id="3Hj_yJd5IUHqJ45RKS4R-289" value="&lt;font face=&quot;Comic Sans MS&quot;&gt;&lt;span style=&quot;font-size: 24px;&quot;&gt;原始方法&lt;/span&gt;&lt;/font&gt;" style="text;html=1;align=center;verticalAlign=middle;resizable=0;points=[];autosize=1;strokeColor=none;fillColor=none;" vertex="1" parent="1">
          <mxGeometry x="-559" y="165" width="114" height="41" as="geometry" />
        </mxCell>
        <mxCell id="3Hj_yJd5IUHqJ45RKS4R-290" value="&lt;font style=&quot;font-size: 18px;&quot; face=&quot;Comic Sans MS&quot;&gt;规范虚拟页面&lt;/font&gt;" style="text;html=1;align=center;verticalAlign=middle;resizable=0;points=[];autosize=1;strokeColor=none;fillColor=none;" vertex="1" parent="1">
          <mxGeometry x="-481" y="449" width="126" height="34" as="geometry" />
        </mxCell>
        <mxCell id="3Hj_yJd5IUHqJ45RKS4R-295" value="&lt;font style=&quot;font-size: 18px;&quot; face=&quot;Comic Sans MS&quot;&gt;物理页面&lt;/font&gt;" style="text;html=1;align=center;verticalAlign=middle;resizable=0;points=[];autosize=1;strokeColor=none;fillColor=none;" vertex="1" parent="1">
          <mxGeometry x="-142" y="448" width="90" height="34" as="geometry" />
        </mxCell>
        <mxCell id="3Hj_yJd5IUHqJ45RKS4R-296" value="&lt;font face=&quot;Comic Sans MS&quot;&gt;obj-1&lt;/font&gt;" style="rounded=0;whiteSpace=wrap;html=1;fillColor=#ffcccc;strokeColor=#36393d;" vertex="1" parent="1">
          <mxGeometry x="-536" y="297" width="46" height="28" as="geometry" />
        </mxCell>
        <mxCell id="3Hj_yJd5IUHqJ45RKS4R-297" value="" style="rounded=0;whiteSpace=wrap;html=1;" vertex="1" parent="1">
          <mxGeometry x="-490" y="297" width="204" height="28" as="geometry" />
        </mxCell>
        <mxCell id="3Hj_yJd5IUHqJ45RKS4R-299" value="" style="rounded=0;whiteSpace=wrap;html=1;" vertex="1" parent="1">
          <mxGeometry x="-537" y="343" width="46" height="28" as="geometry" />
        </mxCell>
        <mxCell id="3Hj_yJd5IUHqJ45RKS4R-300" value="&lt;font face=&quot;Comic Sans MS&quot;&gt;obj-2&lt;/font&gt;" style="rounded=0;whiteSpace=wrap;html=1;fillColor=#cce5ff;strokeColor=#36393d;" vertex="1" parent="1">
          <mxGeometry x="-491" y="343" width="76" height="28" as="geometry" />
        </mxCell>
        <mxCell id="3Hj_yJd5IUHqJ45RKS4R-301" value="" style="rounded=0;whiteSpace=wrap;html=1;" vertex="1" parent="1">
          <mxGeometry x="-415" y="343" width="131" height="28" as="geometry" />
        </mxCell>
        <mxCell id="3Hj_yJd5IUHqJ45RKS4R-302" value="" style="rounded=0;whiteSpace=wrap;html=1;" vertex="1" parent="1">
          <mxGeometry x="-534" y="414" width="46" height="28" as="geometry" />
        </mxCell>
        <mxCell id="3Hj_yJd5IUHqJ45RKS4R-303" value="" style="rounded=0;whiteSpace=wrap;html=1;" vertex="1" parent="1">
          <mxGeometry x="-536" y="414" width="201" height="28" as="geometry" />
        </mxCell>
        <mxCell id="3Hj_yJd5IUHqJ45RKS4R-304" value="&lt;font face=&quot;Comic Sans MS&quot;&gt;obj-N&lt;/font&gt;" style="rounded=0;whiteSpace=wrap;html=1;fillColor=#cdeb8b;strokeColor=#36393d;" vertex="1" parent="1">
          <mxGeometry x="-336" y="414" width="55" height="28" as="geometry" />
        </mxCell>
        <mxCell id="3Hj_yJd5IUHqJ45RKS4R-305" value="" style="endArrow=none;dashed=1;html=1;dashPattern=1 3;strokeWidth=2;rounded=0;" edge="1" parent="1">
          <mxGeometry width="50" height="50" relative="1" as="geometry">
            <mxPoint x="-406" y="409" as="sourcePoint" />
            <mxPoint x="-406" y="372" as="targetPoint" />
          </mxGeometry>
        </mxCell>
        <mxCell id="3Hj_yJd5IUHqJ45RKS4R-306" value="&lt;font face=&quot;Comic Sans MS&quot;&gt;obj-1&lt;/font&gt;" style="rounded=0;whiteSpace=wrap;html=1;fillColor=#ffcccc;strokeColor=#36393d;" vertex="1" parent="1">
          <mxGeometry x="-225" y="297" width="46" height="28" as="geometry" />
        </mxCell>
        <mxCell id="3Hj_yJd5IUHqJ45RKS4R-307" value="" style="rounded=0;whiteSpace=wrap;html=1;" vertex="1" parent="1">
          <mxGeometry x="-179" y="297" width="204" height="28" as="geometry" />
        </mxCell>
        <mxCell id="3Hj_yJd5IUHqJ45RKS4R-308" value="" style="rounded=0;whiteSpace=wrap;html=1;" vertex="1" parent="1">
          <mxGeometry x="-226" y="343" width="46" height="28" as="geometry" />
        </mxCell>
        <mxCell id="3Hj_yJd5IUHqJ45RKS4R-309" value="&lt;font face=&quot;Comic Sans MS&quot;&gt;obj-2&lt;/font&gt;" style="rounded=0;whiteSpace=wrap;html=1;fillColor=#cce5ff;strokeColor=#36393d;" vertex="1" parent="1">
          <mxGeometry x="-180" y="343" width="76" height="28" as="geometry" />
        </mxCell>
        <mxCell id="3Hj_yJd5IUHqJ45RKS4R-310" value="" style="rounded=0;whiteSpace=wrap;html=1;" vertex="1" parent="1">
          <mxGeometry x="-104" y="343" width="131" height="28" as="geometry" />
        </mxCell>
        <mxCell id="3Hj_yJd5IUHqJ45RKS4R-311" value="" style="rounded=0;whiteSpace=wrap;html=1;" vertex="1" parent="1">
          <mxGeometry x="-223" y="414" width="46" height="28" as="geometry" />
        </mxCell>
        <mxCell id="3Hj_yJd5IUHqJ45RKS4R-312" value="" style="rounded=0;whiteSpace=wrap;html=1;" vertex="1" parent="1">
          <mxGeometry x="-225" y="414" width="201" height="28" as="geometry" />
        </mxCell>
        <mxCell id="3Hj_yJd5IUHqJ45RKS4R-313" value="&lt;font face=&quot;Comic Sans MS&quot;&gt;obj-N&lt;/font&gt;" style="rounded=0;whiteSpace=wrap;html=1;fillColor=#cdeb8b;strokeColor=#36393d;" vertex="1" parent="1">
          <mxGeometry x="-25" y="414" width="55" height="28" as="geometry" />
        </mxCell>
        <mxCell id="3Hj_yJd5IUHqJ45RKS4R-314" value="" style="endArrow=none;dashed=1;html=1;dashPattern=1 3;strokeWidth=2;rounded=0;" edge="1" parent="1">
          <mxGeometry width="50" height="50" relative="1" as="geometry">
            <mxPoint x="-95" y="409" as="sourcePoint" />
            <mxPoint x="-95" y="372" as="targetPoint" />
          </mxGeometry>
        </mxCell>
        <mxCell id="3Hj_yJd5IUHqJ45RKS4R-316" value="" style="endArrow=classic;html=1;rounded=0;" edge="1" parent="1">
          <mxGeometry width="50" height="50" relative="1" as="geometry">
            <mxPoint x="356" y="442" as="sourcePoint" />
            <mxPoint x="402" y="442" as="targetPoint" />
          </mxGeometry>
        </mxCell>
        <mxCell id="3Hj_yJd5IUHqJ45RKS4R-317" value="" style="endArrow=classic;html=1;rounded=0;" edge="1" parent="1">
          <mxGeometry width="50" height="50" relative="1" as="geometry">
            <mxPoint x="-275" y="428" as="sourcePoint" />
            <mxPoint x="-229" y="428" as="targetPoint" />
          </mxGeometry>
        </mxCell>
        <mxCell id="3Hj_yJd5IUHqJ45RKS4R-318" value="" style="endArrow=classic;html=1;rounded=0;" edge="1" parent="1">
          <mxGeometry width="50" height="50" relative="1" as="geometry">
            <mxPoint x="-277" y="357" as="sourcePoint" />
            <mxPoint x="-231" y="357" as="targetPoint" />
          </mxGeometry>
        </mxCell>
        <mxCell id="3Hj_yJd5IUHqJ45RKS4R-319" value="" style="endArrow=classic;html=1;rounded=0;" edge="1" parent="1">
          <mxGeometry width="50" height="50" relative="1" as="geometry">
            <mxPoint x="-277" y="312" as="sourcePoint" />
            <mxPoint x="-231" y="312" as="targetPoint" />
          </mxGeometry>
        </mxCell>
        <mxCell id="3Hj_yJd5IUHqJ45RKS4R-320" value="" style="rounded=1;whiteSpace=wrap;html=1;fillColor=#cce5ff;strokeColor=#36393d;shadow=1;" vertex="1" parent="1">
          <mxGeometry x="-387" y="797" width="185" height="92" as="geometry" />
        </mxCell>
        <mxCell id="3Hj_yJd5IUHqJ45RKS4R-322" value="&lt;font face=&quot;Comic Sans MS&quot;&gt;&lt;b&gt;中介分配器&lt;/b&gt;&lt;/font&gt;" style="text;html=1;align=center;verticalAlign=middle;resizable=0;points=[];autosize=1;strokeColor=none;fillColor=none;" vertex="1" parent="1">
          <mxGeometry x="-283" y="855" width="78" height="27" as="geometry" />
        </mxCell>
        <mxCell id="3Hj_yJd5IUHqJ45RKS4R-356" style="edgeStyle=orthogonalEdgeStyle;rounded=0;orthogonalLoop=1;jettySize=auto;html=1;exitX=0;exitY=0;exitDx=0;exitDy=0;entryX=0.75;entryY=1;entryDx=0;entryDy=0;" edge="1" parent="1" source="3Hj_yJd5IUHqJ45RKS4R-323" target="3Hj_yJd5IUHqJ45RKS4R-347">
          <mxGeometry relative="1" as="geometry" />
        </mxCell>
        <mxCell id="3Hj_yJd5IUHqJ45RKS4R-323" value="&lt;b&gt;别名回收器&lt;/b&gt;" style="rounded=1;whiteSpace=wrap;html=1;fillColor=#ffcc99;strokeColor=#36393d;shadow=1;" vertex="1" parent="1">
          <mxGeometry x="-372" y="805" width="112" height="29" as="geometry" />
        </mxCell>
        <mxCell id="3Hj_yJd5IUHqJ45RKS4R-325" value="&lt;b&gt;用户应用程序&lt;/b&gt;" style="rounded=1;whiteSpace=wrap;html=1;shadow=1;" vertex="1" parent="1">
          <mxGeometry x="-340" y="932" width="99" height="26" as="geometry" />
        </mxCell>
        <mxCell id="3Hj_yJd5IUHqJ45RKS4R-326" value="&lt;b&gt;特权后端&lt;/b&gt;" style="rounded=0;whiteSpace=wrap;html=1;fillColor=#e6c3f9;strokeColor=#36393d;shadow=1;" vertex="1" parent="1">
          <mxGeometry x="-474" y="982" width="339" height="22" as="geometry" />
        </mxCell>
        <mxCell id="3Hj_yJd5IUHqJ45RKS4R-327" value="" style="endArrow=classic;html=1;rounded=0;" edge="1" parent="1">
          <mxGeometry width="50" height="50" relative="1" as="geometry">
            <mxPoint x="-264" y="891" as="sourcePoint" />
            <mxPoint x="-264" y="932" as="targetPoint" />
          </mxGeometry>
        </mxCell>
        <mxCell id="3Hj_yJd5IUHqJ45RKS4R-328" value="" style="endArrow=classic;html=1;rounded=0;" edge="1" parent="1">
          <mxGeometry width="50" height="50" relative="1" as="geometry">
            <mxPoint x="-316" y="929" as="sourcePoint" />
            <mxPoint x="-316" y="892" as="targetPoint" />
          </mxGeometry>
        </mxCell>
        <mxCell id="3Hj_yJd5IUHqJ45RKS4R-331" value="&lt;font face=&quot;Comic Sans MS&quot;&gt;malloc()&lt;/font&gt;" style="text;html=1;align=center;verticalAlign=middle;resizable=0;points=[];autosize=1;strokeColor=none;fillColor=none;" vertex="1" parent="1">
          <mxGeometry x="-379" y="900" width="61" height="27" as="geometry" />
        </mxCell>
        <mxCell id="3Hj_yJd5IUHqJ45RKS4R-332" value="&lt;font face=&quot;Comic Sans MS&quot;&gt;0xff96000120&lt;/font&gt;&lt;div&gt;&lt;font face=&quot;Comic Sans MS&quot;&gt;(别名)&lt;/font&gt;&lt;/div&gt;" style="text;html=1;align=center;verticalAlign=middle;resizable=0;points=[];autosize=1;strokeColor=none;fillColor=none;" vertex="1" parent="1">
          <mxGeometry x="-267" y="887" width="101" height="43" as="geometry" />
        </mxCell>
        <mxCell id="3Hj_yJd5IUHqJ45RKS4R-334" value="" style="rounded=0;whiteSpace=wrap;html=1;shadow=1;" vertex="1" parent="1">
          <mxGeometry x="-678" y="714" width="518" height="39" as="geometry" />
        </mxCell>
        <mxCell id="3Hj_yJd5IUHqJ45RKS4R-338" value="&lt;font size=&quot;1&quot; face=&quot;Comic Sans MS&quot;&gt;&lt;b style=&quot;font-size: 14px;&quot;&gt;虚拟内存地址空间&lt;/b&gt;&lt;/font&gt;" style="text;html=1;align=center;verticalAlign=middle;resizable=0;points=[];autosize=1;strokeColor=none;fillColor=none;" vertex="1" parent="1">
          <mxGeometry x="-500" y="688" width="130" height="29" as="geometry" />
        </mxCell>
        <mxCell id="3Hj_yJd5IUHqJ45RKS4R-339" value="" style="endArrow=classic;html=1;rounded=0;" edge="1" parent="1">
          <mxGeometry width="50" height="50" relative="1" as="geometry">
            <mxPoint x="-359" y="805" as="sourcePoint" />
            <mxPoint x="-359" y="754" as="targetPoint" />
          </mxGeometry>
        </mxCell>
        <mxCell id="3Hj_yJd5IUHqJ45RKS4R-340" value="&lt;b&gt;&lt;font face=&quot;Comic Sans MS&quot;&gt;别名空间&lt;/font&gt;&lt;/b&gt;" style="rounded=0;whiteSpace=wrap;html=1;shadow=0;fillColor=#eeeeee;strokeColor=#36393d;" vertex="1" parent="1">
          <mxGeometry x="-397" y="714" width="202" height="39" as="geometry" />
        </mxCell>
        <mxCell id="3Hj_yJd5IUHqJ45RKS4R-342" value="" style="endArrow=classic;html=1;rounded=0;" edge="1" parent="1">
          <mxGeometry width="50" height="50" relative="1" as="geometry">
            <mxPoint x="-315" y="793" as="sourcePoint" />
            <mxPoint x="-315" y="756" as="targetPoint" />
          </mxGeometry>
        </mxCell>
        <mxCell id="3Hj_yJd5IUHqJ45RKS4R-344" value="&lt;font face=&quot;Comic Sans MS&quot;&gt;修改&lt;/font&gt;&lt;div&gt;&lt;font face=&quot;Comic Sans MS&quot;&gt;页表&lt;/font&gt;&lt;/div&gt;" style="text;html=1;align=center;verticalAlign=middle;resizable=0;points=[];autosize=1;strokeColor=none;fillColor=none;" vertex="1" parent="1">
          <mxGeometry x="-357" y="750" width="42" height="43" as="geometry" />
        </mxCell>
        <mxCell id="3Hj_yJd5IUHqJ45RKS4R-345" value="&lt;font face=&quot;Comic Sans MS&quot;&gt;0xff96000120&lt;/font&gt;&lt;div&gt;&lt;font face=&quot;Comic Sans MS&quot;&gt;(别名)&lt;/font&gt;&lt;/div&gt;" style="text;html=1;align=center;verticalAlign=middle;resizable=0;points=[];autosize=1;strokeColor=none;fillColor=none;" vertex="1" parent="1">
          <mxGeometry x="-266" y="751" width="101" height="43" as="geometry" />
        </mxCell>
        <mxCell id="3Hj_yJd5IUHqJ45RKS4R-346" value="" style="endArrow=classic;html=1;rounded=0;" edge="1" parent="1">
          <mxGeometry width="50" height="50" relative="1" as="geometry">
            <mxPoint x="-264" y="755" as="sourcePoint" />
            <mxPoint x="-264" y="796" as="targetPoint" />
          </mxGeometry>
        </mxCell>
        <mxCell id="3Hj_yJd5IUHqJ45RKS4R-347" value="&lt;b&gt;&lt;font face=&quot;Comic Sans MS&quot;&gt;进程内存空间&lt;/font&gt;&lt;/b&gt;" style="rounded=0;whiteSpace=wrap;html=1;shadow=0;fillColor=#eeeeee;strokeColor=#36393d;" vertex="1" parent="1">
          <mxGeometry x="-650" y="714" width="100" height="39" as="geometry" />
        </mxCell>
        <mxCell id="3Hj_yJd5IUHqJ45RKS4R-357" style="edgeStyle=orthogonalEdgeStyle;rounded=0;orthogonalLoop=1;jettySize=auto;html=1;exitX=0.25;exitY=0;exitDx=0;exitDy=0;entryX=0.5;entryY=1;entryDx=0;entryDy=0;" edge="1" parent="1" source="3Hj_yJd5IUHqJ45RKS4R-349" target="3Hj_yJd5IUHqJ45RKS4R-347">
          <mxGeometry relative="1" as="geometry" />
        </mxCell>
        <mxCell id="3Hj_yJd5IUHqJ45RKS4R-349" value="&lt;b&gt;系统默认&lt;/b&gt;&lt;div&gt;&lt;div&gt;&lt;b&gt;内存分配器&lt;/b&gt;&lt;/div&gt;&lt;/div&gt;" style="rounded=0;whiteSpace=wrap;html=1;shadow=1;fillColor=#cdeb8b;strokeColor=#36393d;" vertex="1" parent="1">
          <mxGeometry x="-625" y="803" width="99" height="84" as="geometry" />
        </mxCell>
        <mxCell id="3Hj_yJd5IUHqJ45RKS4R-351" value="" style="endArrow=classic;html=1;rounded=0;" edge="1" parent="1">
          <mxGeometry width="50" height="50" relative="1" as="geometry">
            <mxPoint x="-517" y="825" as="sourcePoint" />
            <mxPoint x="-395" y="825" as="targetPoint" />
          </mxGeometry>
        </mxCell>
        <mxCell id="3Hj_yJd5IUHqJ45RKS4R-352" value="" style="endArrow=classic;html=1;rounded=0;" edge="1" parent="1">
          <mxGeometry width="50" height="50" relative="1" as="geometry">
            <mxPoint x="-397" y="866" as="sourcePoint" />
            <mxPoint x="-516" y="866" as="targetPoint" />
          </mxGeometry>
        </mxCell>
        <mxCell id="3Hj_yJd5IUHqJ45RKS4R-353" value="&lt;font face=&quot;Comic Sans MS&quot;&gt;libc_malloc()&lt;/font&gt;" style="text;html=1;align=center;verticalAlign=middle;resizable=0;points=[];autosize=1;strokeColor=none;fillColor=none;" vertex="1" parent="1">
          <mxGeometry x="-494" y="865" width="89" height="27" as="geometry" />
        </mxCell>
        <mxCell id="3Hj_yJd5IUHqJ45RKS4R-354" value="&lt;font face=&quot;Comic Sans MS&quot;&gt;0x500120&lt;/font&gt;&lt;div&gt;&lt;span style=&quot;font-family: &amp;quot;Comic Sans MS&amp;quot;; background-color: initial;&quot;&gt;(规范虚拟地址)&lt;/span&gt;&lt;/div&gt;" style="text;html=1;align=center;verticalAlign=middle;resizable=0;points=[];autosize=1;strokeColor=none;fillColor=none;" vertex="1" parent="1">
          <mxGeometry x="-511" y="783" width="99" height="43" as="geometry" />
        </mxCell>
        <mxCell id="3Hj_yJd5IUHqJ45RKS4R-358" value="&lt;font color=&quot;#b81659&quot; size=&quot;1&quot; face=&quot;Comic Sans MS&quot;&gt;&lt;b style=&quot;font-size: 17px;&quot;&gt;Geust ring 0&lt;/b&gt;&lt;/font&gt;" style="text;html=1;align=center;verticalAlign=middle;resizable=0;points=[];autosize=1;strokeColor=none;fillColor=none;" vertex="1" parent="1">
          <mxGeometry x="-713" y="986" width="120" height="32" as="geometry" />
        </mxCell>
        <mxCell id="3Hj_yJd5IUHqJ45RKS4R-359" value="&lt;font face=&quot;Comic Sans MS&quot; style=&quot;font-size: 17px;&quot;&gt;&lt;b&gt;操作系统&lt;/b&gt;（&lt;b&gt;&lt;font color=&quot;#b81659&quot;&gt;Host ring 0&lt;/font&gt;&lt;/b&gt;）&lt;/font&gt;" style="rounded=0;whiteSpace=wrap;html=1;shadow=1;" vertex="1" parent="1">
          <mxGeometry x="-714" y="1032" width="591" height="39" as="geometry" />
        </mxCell>
      </root>
    </mxGraphModel>
  </diagram>
</mxfile>
